<?xml version="1.0" encoding="utf-8"?>
<!-- Generator: Adobe Illustrator 22.1.0, SVG Export Plug-In . SVG Version: 6.00 Build 0)  -->
<svg version="1.1" id="Layer_1" xmlns="http://www.w3.org/2000/svg" xmlns:xlink="http://www.w3.org/1999/xlink" x="0px" y="0px"
	 viewBox="0 0 74.9 21.9" style="enable-background:new 0 0 74.9 21.9;" xml:space="preserve">
<style type="text/css">
	.st0{fill:#F932A9;}
	.st1{fill:#FEF200;}
</style>
<path class="st0" d="M70.8,21.9H4.1c-2.3,0-4.1-1.9-4.1-4.1V4.1c0-2.3,1.9-4.1,4.1-4.1h66.7c2.3,0,4.1,1.9,4.1,4.1v13.7
	C74.9,20.1,73.1,21.9,70.8,21.9z"/>
<g>
	<g>
		<g>
			<g>
				<g>
					<path d="M16.2,18v-6.6h4.2V18H16.2z"/>
					<path d="M19.4,12.5V17h-2.2v-4.6H19.4 M20.4,11.5h-4.2V18h4.2V11.5L20.4,11.5z"/>
				</g>
				<g>
					<path d="M27.3,18h-5.8V5.9h5.8c1.4,0,2.3,0.4,2.8,0.9c0.4,0.4,0.6,1.1,0.6,2c0,1-0.1,1.8-0.5,2.3c-0.3,0.4-0.8,0.7-1.5,0.7
						c0.8,0.1,1.4,0.4,1.7,0.8c0.5,0.5,0.6,1.3,0.6,2.1c0,1.1-0.2,2-0.7,2.5C29.8,17.7,28.8,18,27.3,18z M26.6,8.9
						c-0.1-0.1-0.2-0.2-0.4-0.2h-0.7v1.9h0.7c0.1,0,0.4-0.1,0.4-0.3c0-0.2,0-0.3,0-0.7C26.6,9.3,26.6,9.1,26.6,8.9z M26.7,14.2
						c0-0.3,0-0.5,0-0.6c0-0.2-0.2-0.3-0.4-0.3h-0.8v1.9h0.7c0.2,0,0.3-0.1,0.4-0.3C26.7,14.7,26.7,14.5,26.7,14.2z"/>
					<path d="M27.4,6.9c1,0,1.7,0.2,2.1,0.6c0.2,0.2,0.4,0.5,0.4,1.3c0,0.9-0.1,1.4-0.3,1.7c-0.1,0.1-0.3,0.3-0.8,0.3l0,2
						c0.5,0,0.8,0.2,1.1,0.5c0.2,0.2,0.3,0.7,0.3,1.5c0,0.9-0.1,1.5-0.4,1.8c-0.2,0.3-0.8,0.6-2.3,0.6h-4.8V6.9H27.4 M24.5,11.7h1
						h0.7c0.6,0,1.2-0.4,1.4-1.1c0-0.2,0.1-0.5,0.1-0.9c0-0.4,0-0.7-0.1-1l0-0.1l0-0.1c-0.2-0.5-0.7-0.8-1.3-0.8h-0.7h-1v1v1.9V11.7
						 M24.5,16.2h1h0.7c0.7,0,1.2-0.4,1.4-1.1c0.1-0.3,0.1-0.6,0.1-0.9c0-0.3,0-0.6-0.1-0.9c-0.1-0.6-0.7-1.1-1.3-1.1h-0.8h-1v1v1.9
						V16.2 M27.4,5.9h-5.8V18h5.8c1.5,0,2.5-0.3,3-0.9c0.5-0.5,0.7-1.4,0.7-2.5c0-0.9-0.1-1.6-0.6-2.1c-0.4-0.4-0.9-0.7-1.7-0.8
						c0.7-0.1,1.2-0.3,1.5-0.7c0.4-0.5,0.5-1.3,0.5-2.3c0-0.9-0.2-1.5-0.6-2C29.7,6.2,28.8,5.9,27.4,5.9L27.4,5.9z M25.5,10.7V8.8
						h0.7c0.2,0,0.3,0,0.4,0.2c0,0.2,0.1,0.4,0.1,0.7c0,0.4,0,0.5,0,0.7c0,0.2-0.3,0.3-0.4,0.3H25.5L25.5,10.7z M25.5,15.2v-1.9h0.8
						c0.2,0,0.3,0,0.4,0.3c0,0.2,0,0.3,0,0.6c0,0.3,0,0.5,0,0.7c0,0.2-0.2,0.3-0.4,0.3H25.5L25.5,15.2z"/>
				</g>
				<g>
					<path d="M37.8,18H32V5.9h5.8c1.4,0,2.3,0.4,2.8,0.9c0.4,0.4,0.6,1.1,0.6,2c0,1-0.1,1.8-0.5,2.3c-0.3,0.4-0.8,0.7-1.5,0.7
						c0.8,0.1,1.4,0.4,1.7,0.8c0.5,0.5,0.6,1.3,0.6,2.1c0,1.1-0.2,2-0.7,2.5C40.3,17.7,39.3,18,37.8,18z M37,8.9
						c-0.1-0.1-0.2-0.2-0.4-0.2H36v1.9h0.7c0.1,0,0.4-0.1,0.4-0.3c0-0.2,0-0.3,0-0.7C37.1,9.3,37.1,9.1,37,8.9z M37.2,14.2
						c0-0.3,0-0.5,0-0.6c0-0.2-0.2-0.3-0.4-0.3H36v1.9h0.7c0.2,0,0.3-0.1,0.4-0.3C37.2,14.7,37.2,14.5,37.2,14.2z"/>
					<path d="M37.9,6.9c1,0,1.7,0.2,2.1,0.6c0.2,0.2,0.4,0.5,0.4,1.3c0,0.9-0.1,1.4-0.3,1.7c-0.1,0.1-0.3,0.3-0.8,0.3l0,2
						c0.5,0,0.8,0.2,1.1,0.5c0.2,0.2,0.3,0.7,0.3,1.5c0,0.9-0.1,1.5-0.4,1.8c-0.2,0.3-0.8,0.6-2.3,0.6H33V6.9H37.9 M35,11.7h1h0.7
						c0.6,0,1.2-0.4,1.4-1.1c0-0.2,0.1-0.5,0.1-0.9c0-0.4,0-0.7-0.1-1l0-0.1l0-0.1c-0.2-0.5-0.7-0.8-1.3-0.8H36h-1v1v1.9V11.7
						 M35,16.2h1h0.7c0.7,0,1.2-0.4,1.4-1.1c0.1-0.3,0.1-0.6,0.1-0.9c0-0.3,0-0.6-0.1-0.9c-0.1-0.6-0.7-1.1-1.3-1.1H36h-1v1v1.9
						V16.2 M37.9,5.9H32V18h5.8c1.5,0,2.5-0.3,3-0.9c0.5-0.5,0.7-1.4,0.7-2.5c0-0.9-0.1-1.6-0.6-2.1c-0.4-0.4-0.9-0.7-1.7-0.8
						c0.7-0.1,1.2-0.3,1.5-0.7c0.4-0.5,0.5-1.3,0.5-2.3c0-0.9-0.2-1.5-0.6-2C40.1,6.2,39.3,5.9,37.9,5.9L37.9,5.9z M36,10.7V8.8h0.7
						c0.2,0,0.3,0,0.4,0.2c0,0.2,0.1,0.4,0.1,0.7c0,0.4,0,0.5,0,0.7c0,0.2-0.3,0.3-0.4,0.3H36L36,10.7z M36,15.2v-1.9h0.8
						c0.2,0,0.3,0,0.4,0.3c0,0.2,0,0.3,0,0.6c0,0.3,0,0.5,0,0.7c0,0.2-0.2,0.3-0.4,0.3H36L36,15.2z"/>
				</g>
				<g>
					<path d="M47.6,18h-5V5.9h4.6c1.6,0,2.7,0.3,3.3,1c0.7,0.9,0.9,2.3,0.9,4.8c0,3.6-0.1,4.3-0.9,5.3C49.9,17.7,49,18,47.6,18z
						 M47.6,12.1c0-1.5-0.1-2.3-0.1-2.6C47.4,9.1,47.2,9,46.9,9h-0.5l0,6.1H47c0.3,0,0.4-0.2,0.5-0.5C47.5,14.1,47.6,13.6,47.6,12.1
						z"/>
					<path d="M47.1,6.9c1.4,0,2.2,0.2,2.6,0.7c0.5,0.6,0.6,2,0.6,4.2c0,3.6-0.1,4-0.6,4.6c-0.4,0.4-0.9,0.7-2.2,0.7h-4V6.9H47.1
						 M45.4,16.1h1H47c0.8,0,1.4-0.6,1.5-1.4c0.1-0.5,0.1-1.1,0.1-2.7c0-0.8,0-2.2-0.1-2.8C48.2,8.1,47.3,8,46.9,8h-0.5h-1l0,1
						l0,6.1L45.4,16.1 M47.1,5.9h-4.6V18h5c1.4,0,2.3-0.4,2.9-1.1c0.8-0.9,0.9-1.6,0.9-5.3c0-2.5-0.1-3.9-0.9-4.8
						C49.8,6.1,48.7,5.9,47.1,5.9L47.1,5.9z M46.4,15.1l0-6.1h0.5c0.3,0,0.4,0.1,0.5,0.5c0.1,0.3,0.1,1.1,0.1,2.6c0,1.5,0,2-0.1,2.5
						c0,0.3-0.2,0.5-0.5,0.5H46.4L46.4,15.1z"/>
				</g>
				<g>
					<path d="M60.2,11.3c0.2,0.6,0.3,1.4,0.3,2.4c0,0.7,0,1.4-0.2,2c-0.3,1.6-1.2,2.4-2.6,2.4c-0.9,0-1.5-0.2-2-0.6L55.3,18h-3V5.9
						h3.6v4.5c0.3-0.5,1-0.8,1.9-0.8C59,9.5,59.8,10.1,60.2,11.3z M55.9,12.6c-0.1,0.3-0.1,0.8-0.1,1.3c0,0.5,0,1.2,0.1,1.5
						c0,0.2,0.1,0.4,0.4,0.4s0.4-0.1,0.4-0.4c0.1-0.3,0.1-0.7,0.1-1.5c0-0.5,0-1-0.1-1.3c0-0.2-0.1-0.4-0.4-0.4
						C56.1,12.2,56,12.4,55.9,12.6z"/>
					<path d="M54.9,6.9v3.5V13c0,0.3,0,0.6,0,0.9c0,1.2,0.1,1.6,0.1,1.8c0.1,0.3,0.2,0.5,0.3,0.7l-0.4,0.6L54.8,17h-1.5V6.9H54.9
						 M57.8,10.5c0.8,0,1.2,0.3,1.5,1c0.2,0.6,0.2,1.3,0.2,2.1c0,0.7,0,1.3-0.2,1.8c-0.3,1.4-1,1.6-1.7,1.6c-0.6,0-1.1-0.1-1.3-0.3
						l0,0c0.4,0,1.1-0.2,1.3-1.2c0.1-0.4,0.1-0.8,0.1-1.7c0-0.5,0-1.1-0.1-1.4c-0.1-0.7-0.5-1.1-1.2-1.2l0.2-0.4
						C56.8,10.7,57.1,10.5,57.8,10.5 M55.9,5.9h-3.6V18h3l0.4-0.6c0.4,0.4,1.1,0.6,2,0.6c1.4,0,2.3-0.8,2.6-2.4
						c0.1-0.6,0.2-1.2,0.2-2c0-1-0.1-1.8-0.3-2.4c-0.4-1.2-1.2-1.8-2.4-1.8c-0.9,0-1.6,0.3-1.9,0.8V5.9L55.9,5.9z M56.3,15.8
						c-0.3,0-0.3-0.2-0.4-0.4c-0.1-0.3-0.1-1-0.1-1.5c0-0.5,0-0.9,0.1-1.3c0-0.3,0.2-0.4,0.4-0.4c0.3,0,0.4,0.1,0.4,0.4
						c0,0.3,0.1,0.8,0.1,1.3c0,0.8,0,1.2-0.1,1.5C56.7,15.6,56.6,15.8,56.3,15.8L56.3,15.8z"/>
				</g>
			</g>
			<g>
				<g>
					<path d="M16.2,18v-6.6h4.2V18H16.2z"/>
				</g>
				<g>
					<path d="M27.3,18h-5.8V5.9h5.8c1.4,0,2.3,0.4,2.8,0.9c0.4,0.4,0.6,1.1,0.6,2c0,1-0.1,1.8-0.5,2.3c-0.3,0.4-0.8,0.7-1.5,0.7
						c0.8,0.1,1.4,0.4,1.7,0.8c0.5,0.5,0.6,1.3,0.6,2.1c0,1.1-0.2,2-0.7,2.5C29.8,17.7,28.8,18,27.3,18z M26.6,8.9
						c-0.1-0.1-0.2-0.2-0.4-0.2h-0.7v1.9h0.7c0.1,0,0.4-0.1,0.4-0.3c0-0.2,0-0.3,0-0.7C26.6,9.3,26.6,9.1,26.6,8.9z M26.7,14.2
						c0-0.3,0-0.5,0-0.6c0-0.2-0.2-0.3-0.4-0.3h-0.8v1.9h0.7c0.2,0,0.3-0.1,0.4-0.3C26.7,14.7,26.7,14.5,26.7,14.2z"/>
				</g>
				<g>
					<path d="M37.8,18H32V5.9h5.8c1.4,0,2.3,0.4,2.8,0.9c0.4,0.4,0.6,1.1,0.6,2c0,1-0.1,1.8-0.5,2.3c-0.3,0.4-0.8,0.7-1.5,0.7
						c0.8,0.1,1.4,0.4,1.7,0.8c0.5,0.5,0.6,1.3,0.6,2.1c0,1.1-0.2,2-0.7,2.5C40.3,17.7,39.3,18,37.8,18z M37,8.9
						c-0.1-0.1-0.2-0.2-0.4-0.2H36v1.9h0.7c0.1,0,0.4-0.1,0.4-0.3c0-0.2,0-0.3,0-0.7C37.1,9.3,37.1,9.1,37,8.9z M37.2,14.2
						c0-0.3,0-0.5,0-0.6c0-0.2-0.2-0.3-0.4-0.3H36v1.9h0.7c0.2,0,0.3-0.1,0.4-0.3C37.2,14.7,37.2,14.5,37.2,14.2z"/>
				</g>
				<g>
					<path d="M47.6,18h-5V5.9h4.6c1.6,0,2.7,0.3,3.3,1c0.7,0.9,0.9,2.3,0.9,4.8c0,3.6-0.1,4.3-0.9,5.3C49.9,17.7,49,18,47.6,18z
						 M47.6,12.1c0-1.5-0.1-2.3-0.1-2.6C47.4,9.1,47.2,9,46.9,9h-0.5l0,6.1H47c0.3,0,0.4-0.2,0.5-0.5C47.5,14.1,47.6,13.6,47.6,12.1
						z"/>
				</g>
				<g>
					<path d="M60.2,11.3c0.2,0.6,0.3,1.4,0.3,2.4c0,0.7,0,1.4-0.2,2c-0.3,1.6-1.2,2.4-2.6,2.4c-0.9,0-1.5-0.2-2-0.6L55.3,18h-3V5.9
						h3.6v4.5c0.3-0.5,1-0.8,1.9-0.8C59,9.5,59.8,10.1,60.2,11.3z M55.9,12.6c-0.1,0.3-0.1,0.8-0.1,1.3c0,0.5,0,1.2,0.1,1.5
						c0,0.2,0.1,0.4,0.4,0.4s0.4-0.1,0.4-0.4c0.1-0.3,0.1-0.7,0.1-1.5c0-0.5,0-1-0.1-1.3c0-0.2-0.1-0.4-0.4-0.4
						C56.1,12.2,56,12.4,55.9,12.6z"/>
				</g>
			</g>
		</g>
		<g>
			<polygon points="18.4,4.3 19.3,6.2 21.4,6.5 19.9,8 20.2,10.1 18.4,9.1 16.5,10.1 16.8,8 15.3,6.5 17.4,6.2 			"/>
		</g>
	</g>
	<g>
		<g>
			<path class="st1" d="M15.2,17v-6.6h4.2V17H15.2z"/>
			<path class="st1" d="M26.3,17h-5.8V4.9h5.8c1.4,0,2.3,0.4,2.8,0.9c0.4,0.4,0.6,1.1,0.6,2c0,1-0.1,1.8-0.5,2.3
				c-0.3,0.4-0.8,0.7-1.5,0.7c0.8,0.1,1.4,0.4,1.7,0.8c0.5,0.5,0.6,1.3,0.6,2.1c0,1.1-0.2,2-0.7,2.5C28.8,16.7,27.8,17,26.3,17z
				 M25.6,7.9c-0.1-0.1-0.2-0.2-0.4-0.2h-0.7v1.9h0.7c0.1,0,0.4-0.1,0.4-0.3c0-0.2,0-0.3,0-0.7C25.6,8.3,25.6,8.1,25.6,7.9z
				 M25.7,13.2c0-0.3,0-0.5,0-0.6c0-0.2-0.2-0.3-0.4-0.3h-0.8v1.9h0.7c0.2,0,0.3-0.1,0.4-0.3C25.7,13.7,25.7,13.5,25.7,13.2z"/>
			<path class="st1" d="M36.8,17H31V4.9h5.8c1.4,0,2.3,0.4,2.8,0.9c0.4,0.4,0.6,1.1,0.6,2c0,1-0.1,1.8-0.5,2.3
				c-0.3,0.4-0.8,0.7-1.5,0.7c0.8,0.1,1.4,0.4,1.7,0.8c0.5,0.5,0.6,1.3,0.6,2.1c0,1.1-0.2,2-0.7,2.5C39.3,16.7,38.3,17,36.8,17z
				 M36,7.9c-0.1-0.1-0.2-0.2-0.4-0.2H35v1.9h0.7c0.1,0,0.4-0.1,0.4-0.3c0-0.2,0-0.3,0-0.7C36.1,8.3,36.1,8.1,36,7.9z M36.2,13.2
				c0-0.3,0-0.5,0-0.6c0-0.2-0.2-0.3-0.4-0.3H35v1.9h0.7c0.2,0,0.3-0.1,0.4-0.3C36.2,13.7,36.2,13.5,36.2,13.2z"/>
			<path class="st1" d="M46.6,17h-5V4.9h4.6c1.6,0,2.7,0.3,3.3,1c0.7,0.9,0.9,2.3,0.9,4.8c0,3.6-0.1,4.3-0.9,5.3
				C48.9,16.7,48,17,46.6,17z M46.6,11.1c0-1.5-0.1-2.3-0.1-2.6C46.4,8.1,46.2,8,45.9,8h-0.5l0,6.1H46c0.3,0,0.4-0.2,0.5-0.5
				C46.5,13.1,46.6,12.6,46.6,11.1z"/>
			<path class="st1" d="M59.2,10.3c0.2,0.6,0.3,1.4,0.3,2.4c0,0.7,0,1.4-0.2,2c-0.3,1.6-1.2,2.4-2.6,2.4c-0.9,0-1.5-0.2-2-0.6
				L54.3,17h-3V4.9h3.6v4.5c0.3-0.5,1-0.8,1.9-0.8C58,8.5,58.8,9.1,59.2,10.3z M54.9,11.6c-0.1,0.3-0.1,0.8-0.1,1.3
				c0,0.5,0,1.2,0.1,1.5c0,0.2,0.1,0.4,0.4,0.4s0.4-0.1,0.4-0.4c0.1-0.3,0.1-0.7,0.1-1.5c0-0.5,0-1-0.1-1.3c0-0.2-0.1-0.4-0.4-0.4
				C55.1,11.2,55,11.4,54.9,11.6z"/>
		</g>
		<polygon class="st1" points="17.4,3.3 18.3,5.2 20.4,5.5 18.9,7 19.2,9.1 17.4,8.1 15.5,9.1 15.8,7 14.3,5.5 16.4,5.2 		"/>
	</g>
</g>
</svg>
