<?xml version="1.0" encoding="utf-8"?>
<!-- Generator: Adobe Illustrator 22.1.0, SVG Export Plug-In . SVG Version: 6.00 Build 0)  -->
<svg version="1.1" id="Layer_1" xmlns="http://www.w3.org/2000/svg" xmlns:xlink="http://www.w3.org/1999/xlink" x="0px" y="0px"
	 viewBox="0 0 441.5 321.1" style="enable-background:new 0 0 441.5 321.1;" xml:space="preserve">
<style type="text/css">
	.st0{fill:#FFFF2C;}
	.st1{fill:#D5218C;}
	.st2{fill:#FFFFFF;}
	.st3{fill:#F932A9;}
	.st4{fill:#FEF200;}
</style>
<g>
	<g>
		<g>
			<g>
				<path class="st0" d="M36.8,129.4H14.4c-0.7,0-1-0.5-1-3V86.3h23v40.4C36.4,128.5,36.5,129.4,36.8,129.4z"/>
			</g>
			<g>
				<path class="st1" d="M74.6,129.4l-9.8-24.6v24.6H43.4V55h21.5l9.7,25.2V55h22v74.4L74.6,129.4L74.6,129.4z"/>
			</g>
			<g>
				<path class="st1" d="M139.6,75.9v53.5h-24.7V75.9h-12.7V55h50.2v20.9H139.6z"/>
			</g>
			<g>
				<path class="st1" d="M158.2,129.4V55h46.6v20.7h-22.4v6.5h21.3v19.6h-21.3v7.4H205v20.2L158.2,129.4L158.2,129.4z"/>
			</g>
			<g>
				<path class="st1" d="M264.5,91.4c-1.6,3.6-3.8,5.3-5.5,6.2l9.7,31.9h-24.3l-7-26.2h-2.6v26.2h-23.6V55.1h34.2
					c7,0,12.3,2,15.8,5.7c3.8,3.9,5.6,9.8,5.6,17.5C266.8,84.2,265.9,88.4,264.5,91.4z M242.2,77.1c-0.3-1.1-0.9-2-2.2-2h-4.8
					c0,0,0,9.2,0,10.3c0.2,0,4.7,0,5-0.1c0.8-0.1,1.6-0.5,1.9-1.3s0.4-2.2,0.4-3.4S242.4,77.8,242.2,77.1z"/>
			</g>
			<g>
				<path class="st1" d="M305.5,129.4l-9.8-24.6v24.6h-21.4V55h21.5l9.7,25.2V55h22v74.4L305.5,129.4L305.5,129.4z"/>
			</g>
			<g>
				<path class="st1" d="M334.7,129.4V55h46.6v20.7h-22.4v6.5h21.3v19.6h-21.3v7.4h22.6v20.2L334.7,129.4L334.7,129.4z"/>
			</g>
			<g>
				<path class="st1" d="M424.3,75.9v53.5h-24.7V75.9h-12.7V55h50.2v20.9H424.3z"/>
			</g>
		</g>
		<g>
			<g>
				<path class="st0" d="M36.8,129.4H14.4c-0.7,0-1-0.5-1-3V86.3h23v40.4C36.4,128.5,36.5,129.4,36.8,129.4z"/>
			</g>
			<g>
				<path class="st1" d="M74.6,129.4l-9.8-24.6v24.6H43.4V55h21.5l9.7,25.2V55h22v74.4L74.6,129.4L74.6,129.4z"/>
			</g>
			<g>
				<path class="st1" d="M139.6,75.9v53.5h-24.7V75.9h-12.7V55h50.2v20.9H139.6z"/>
			</g>
			<g>
				<path class="st1" d="M158.2,129.4V55h46.6v20.7h-22.4v6.5h21.3v19.6h-21.3v7.4H205v20.2L158.2,129.4L158.2,129.4z"/>
			</g>
			<g>
				<path class="st1" d="M264.5,91.4c-1.6,3.6-3.8,5.3-5.5,6.2l9.7,31.9h-24.3l-7-26.2h-2.6v26.2h-23.6V55.1h34.2
					c7,0,12.3,2,15.8,5.7c3.8,3.9,5.6,9.8,5.6,17.5C266.8,84.2,265.9,88.4,264.5,91.4z M242.2,77.1c-0.3-1.1-0.9-2-2.2-2h-4.8
					c0,0,0,9.2,0,10.3c0.2,0,4.7,0,5-0.1c0.8-0.1,1.6-0.5,1.9-1.3s0.4-2.2,0.4-3.4S242.4,77.8,242.2,77.1z"/>
			</g>
			<g>
				<path class="st1" d="M305.5,129.4l-9.8-24.6v24.6h-21.4V55h21.5l9.7,25.2V55h22v74.4L305.5,129.4L305.5,129.4z"/>
			</g>
			<g>
				<path class="st1" d="M334.7,129.4V55h46.6v20.7h-22.4v6.5h21.3v19.6h-21.3v7.4h22.6v20.2L334.7,129.4L334.7,129.4z"/>
			</g>
			<g>
				<path class="st1" d="M424.3,75.9v53.5h-24.7V75.9h-12.7V55h50.2v20.9H424.3z"/>
			</g>
		</g>
		<g>
			<g>
				<path class="st2" d="M36.8,129.4H14.4c-0.7,0-1-0.5-1-3V86.3h23v40.4C36.4,128.5,36.5,129.4,36.8,129.4z"/>
				<path class="st2" d="M35.4,87.4v39.4c0,0.7,0,1.2,0,1.7H14.5c-0.1-0.2-0.2-0.7-0.2-2V87.4L35.4,87.4 M36.4,86.4h-23v40.1
					c0,2.4,0.4,3,1,3h22.4c-0.3-0.1-0.4-0.9-0.4-2.7V86.4L36.4,86.4z"/>
			</g>
			<g>
				<path class="st2" d="M74.6,129.4l-9.8-24.6v24.6H43.4V55h21.5l9.7,25.2V55h22v74.4L74.6,129.4L74.6,129.4z"/>
				<path class="st2" d="M95.6,56.1v72.4H75.3l-9.5-24l-1.9-4.9v5.2v23.6H44.5V56h19.8l9.4,24.5l1.9,5v-5.3V56L95.6,56.1 M96.6,55.1
					h-22v25.1L64.9,55H43.4v74.4h21.4v-24.6l9.8,24.6h22V55.1L96.6,55.1z"/>
			</g>
			<g>
				<path class="st2" d="M139.6,75.9v53.5h-24.7V75.9h-12.7V55h50.2v20.9H139.6z"/>
				<path class="st2" d="M151.4,56.1V75h-11.8h-1v1v52.5h-22.7V76v-1h-1h-11.7V56.1H151.4 M152.4,55.1h-50.2V76h12.7v53.5h24.7V76
					h12.8V55.1L152.4,55.1z"/>
			</g>
			<g>
				<path class="st2" d="M158.2,129.4V55h46.6v20.7h-22.4v6.5h21.3v19.6h-21.3v7.4H205v20.2L158.2,129.4L158.2,129.4z"/>
				<path class="st2" d="M203.8,56.1v18.7h-21.4h-1v1v6.5v1h1h20.3v17.6h-20.3h-1v1v7.4v1h1H204v18.2h-44.8V56.1H203.8 M204.8,55.1
					h-46.6v74.4H205v-20.3h-22.6v-7.4h21.3V82.2h-21.3v-6.5h22.4V55.1L204.8,55.1z"/>
			</g>
			<g>
				<path class="st2" d="M264.5,91.4c-1.6,3.6-3.8,5.3-5.5,6.2l9.7,31.9h-24.3l-7-26.2h-2.6v26.2h-23.6V55.1h34.2
					c7,0,12.3,2,15.8,5.7c3.8,3.9,5.6,9.8,5.6,17.5C266.8,84.2,265.9,88.4,264.5,91.4z M242.2,77.1c-0.3-1.1-0.9-2-2.2-2h-4.8
					c0,0,0,9.2,0,10.3c0.2,0,4.7,0,5-0.1c0.8-0.1,1.6-0.5,1.9-1.3s0.4-2.2,0.4-3.4S242.4,77.8,242.2,77.1z"/>
				<path class="st2" d="M245.4,56.1c6.7,0,11.7,1.8,15,5.4c3.6,3.7,5.3,9.2,5.3,16.8c0,5.3-0.8,9.6-2.2,12.7
					c-1.2,2.7-2.9,4.6-5,5.7l-0.8,0.4l0.2,0.8l9.3,30.6H245l-6.8-25.5l-0.2-0.7h-0.8h-2.4h-1v1v25.2h-21.6V56.1H245.4 M234.2,86.4h1
					c4,0,4.9-0.1,5.2-0.1c1.4-0.2,2.3-0.9,2.7-2c0.4-1.1,0.4-2.8,0.4-3.8c0-1.1-0.1-2.8-0.3-3.7c-0.4-1.8-1.6-2.7-3.2-2.7h-4.8h-1v1
					v10.3L234.2,86.4 M245.4,55.1h-34.2v74.4h23.6v-26.2h2.5l7,26.2h24.3l-9.7-31.9c1.7-0.8,3.9-2.5,5.5-6.2c1.4-3,2.3-7.2,2.3-13.1
					c0-7.7-1.8-13.6-5.6-17.5C257.8,57,252.4,55.1,245.4,55.1L245.4,55.1z M235.2,85.4c0-1,0-10.3,0-10.3h4.8c1.3,0,2,0.8,2.2,2
					c0.2,0.7,0.3,2.2,0.3,3.4s-0.1,2.6-0.4,3.4c-0.3,0.8-1,1.2-1.9,1.3C239.9,85.4,235.4,85.4,235.2,85.4L235.2,85.4z"/>
			</g>
			<g>
				<path class="st2" d="M305.5,129.4l-9.8-24.6v24.6h-21.4V55h21.5l9.7,25.2V55h22v74.4L305.5,129.4L305.5,129.4z"/>
				<path class="st2" d="M326.5,56.1v72.4h-20.3l-9.5-24l-1.9-4.9v5.2v23.6h-19.4V56h19.8l9.4,24.5l1.9,5v-5.3V56L326.5,56.1
					 M327.5,55.1h-22v25.1L295.8,55h-21.5v74.4h21.4v-24.6l9.8,24.6h22L327.5,55.1L327.5,55.1z"/>
			</g>
			<g>
				<path class="st2" d="M334.7,129.4V55h46.6v20.7h-22.4v6.5h21.3v19.6h-21.3v7.4h22.6v20.2L334.7,129.4L334.7,129.4z"/>
				<path class="st2" d="M380.3,56.1v18.7h-21.4h-1v1v6.5v1h1h20.3v17.6h-20.3h-1v1v7.4v1h1h21.6v18.2h-44.8V56.1H380.3 M381.3,55.1
					h-46.6v74.4h46.8v-20.3h-22.6v-7.4h21.3V82.2h-21.3v-6.5h22.4L381.3,55.1L381.3,55.1z"/>
			</g>
			<g>
				<path class="st2" d="M424.3,75.9v53.5h-24.7V75.9h-12.7V55h50.2v20.9H424.3z"/>
				<path class="st2" d="M436.1,56.1V75h-11.8h-1v1v52.5h-22.7V76v-1h-1h-11.7V56.1H436.1 M437.1,55.1h-50.2V76h12.7v53.5h24.7V76
					h12.8V55.1L437.1,55.1z"/>
			</g>
		</g>
	</g>
	<g>
		<polygon class="st2" points="25.1,47.4 30.1,57.6 41.3,59.2 33.2,67.1 35.1,78.3 25.1,73 15.1,78.3 17,67.1 8.9,59.2 20.1,57.6 		
			"/>
	</g>
</g>
<g>
	<g>
		<path class="st2" d="M47.3,225.8H13.5v-71.6h34.2c8.4,0,13.4,2.2,16.3,5.2c2.5,2.6,3.8,6.2,3.8,11.5c0,5.7-0.6,10.3-3.1,13.5
			c-1.8,2.2-4.6,3.9-9,4.2c4.8,0.4,8.1,2.4,10.1,4.8c2.8,3,3.4,7.4,3.4,12.6c0,6.5-1.2,11.6-4.2,14.6
			C61.8,224,56.2,225.8,47.3,225.8z M42.8,172.2c-0.4-0.8-1.2-1.1-2.2-1.1h-3.9v11.4h3.9c0.7,0,2.1-0.4,2.3-1.9
			c0.2-0.9,0.3-1.8,0.3-4C43.2,174.6,43.1,173.2,42.8,172.2z M43.6,203.4c0-1.7,0-2.7-0.3-3.7c-0.3-1.4-1.2-1.7-2.2-1.7h-4.5v11H41
			c1.3,0,2-0.5,2.2-1.8C43.6,206.2,43.6,205.1,43.6,203.4z"/>
	</g>
	<g>
		<path class="st2" d="M127.6,170.3c1,4.7,1,9.1,1,18.7c0,10.6-0.4,15.6-1.2,19.6c-1.7,11.5-9.8,18.2-26.3,18.2
			c-16.3,0-24.5-6.3-26.2-16.9c-0.7-3.6-1-9.5-1-20.3c0-9.2,0-14,0.8-18c1.9-9.6,8.4-18.3,26.4-18.3
			C117.4,153.4,125.5,160.3,127.6,170.3z M104.3,205.6c0.5-3.6,0.7-8.7,0.7-15.5c0-6.3-0.1-12.1-0.4-14.4c-0.4-2.1-1-3.5-3.2-3.5
			s-2.8,1.3-3.1,3.7c-0.3,2.2-0.4,7.8-0.4,14.3c0,6.7,0.1,11.7,0.7,15.6c0.2,1.3,0.9,2.5,2.9,2.5
			C103.2,208.2,104.1,207.1,104.3,205.6z"/>
	</g>
	<g>
		<path class="st2" d="M168.3,198.1v27.7h-23.7v-27.3l-16.7-44.3h24c0,0,4.4,16.8,4.8,20.7c0.3-3.9,5.2-20.7,5.2-20.7h24
			L168.3,198.1z"/>
	</g>
	<g>
		<path class="st2" d="M241.2,226.4h-33.8v-71.5h34.2c8.4,0,13.4,2.2,16.3,5.2c2.5,2.6,3.8,6.2,3.8,11.5c0,5.7-0.6,10.3-3.1,13.5
			c-1.8,2.2-4.6,3.9-9,4.2c4.8,0.4,8.1,2.4,10.1,4.8c2.8,3,3.4,7.4,3.4,12.6c0,6.5-1.2,11.6-4.2,14.6
			C255.7,224.6,250.1,226.4,241.2,226.4z M236.7,172.9c-0.4-0.8-1.2-1.1-2.2-1.1h-3.9v11.4h3.9c0.7,0,2.1-0.4,2.3-1.9
			c0.2-0.9,0.3-1.8,0.3-4C237.1,175.2,237,173.9,236.7,172.9z M237.5,204.1c0-1.7,0-2.7-0.3-3.7c-0.3-1.4-1.2-1.7-2.2-1.7h-4.5v11
			h4.4c1.3,0,2-0.5,2.2-1.8C237.5,206.9,237.5,205.7,237.5,204.1z"/>
	</g>
	<g>
		<path class="st2" d="M290.2,226.4h-23.5l12.5-71.5h33.9l11.7,71.5h-24c0,0-1.6-11.6-2-17.6h-6.6
			C291.7,215.9,290.2,226.4,290.2,226.4z M296.4,178.5c-0.1-1.4-0.8-7-0.8-7s-0.6,5.7-0.7,7c0,0.7-1.1,14-1.2,14.7h3.8
			C297.4,192.7,296.5,179.2,296.4,178.5z"/>
	</g>
	<g>
		<path class="st2" d="M360,226.4l-9.4-23.7v23.7H330v-71.5h20.7l9.3,24.2v-24.2h21.2v71.5H360z"/>
	</g>
	<g>
		<path class="st2" d="M417.7,226.4H388v-71.5h27.2c9.5,0,16,1.5,19.6,5.9c4.4,5.2,5.2,13.4,5.2,28.2c0,21.2-0.5,25.6-5.1,30.9
			C431.2,224.4,426.2,226.4,417.7,226.4z M417.7,191.4c0-8.6-0.4-13.5-0.7-15.2c-0.4-2.2-1.3-2.8-2.9-2.8h-2.9l-0.1,36h3.1
			c1.5,0,2.6-1.3,2.8-3C417.4,203.4,417.7,200.4,417.7,191.4z"/>
	</g>
</g>
<g>
	<g>
		<path class="st1" d="M41.6,318.5H13.4v-68h25.8c9,0,15.2,1.4,18.7,5.6c4.2,4.9,4.9,12.8,4.9,26.9c0,20.2-0.5,24.3-4.9,29.4
			C54.5,316.5,49.7,318.5,41.6,318.5z M41.6,285.2c0-8.2-0.3-12.9-0.7-14.5c-0.4-2-1.3-2.6-2.7-2.6h-2.7l-0.1,34.2h3
			c1.4,0,2.5-1.2,2.6-2.8C41.4,296.6,41.6,293.8,41.6,285.2z"/>
		<path class="st1" d="M87.6,318.5H65.3l11.9-68h32.2l11.1,68H97.7c0,0-1.5-11-1.9-16.7h-6.3C89,308.5,87.6,318.5,87.6,318.5z
			 M93.5,273c-0.1-1.4-0.8-6.7-0.8-6.7s-0.6,5.5-0.7,6.7c0,0.7-1,13.3-1.1,14h3.6C94.4,286.4,93.6,273.6,93.5,273z"/>
		<path class="st1" d="M154.5,269.6v48.9h-22.6v-48.9h-11.6v-19.1h45.9v19.1H154.5z"/>
		<path class="st1" d="M187.3,318.5H165l11.9-68h32.2l11.1,68h-22.8c0,0-1.5-11-1.9-16.7h-6.3C188.8,308.5,187.3,318.5,187.3,318.5z
			 M193.2,273c-0.1-1.4-0.8-6.7-0.8-6.7s-0.6,5.5-0.7,6.7c0,0.7-1,13.3-1.1,14h3.6C194.2,286.4,193.3,273.6,193.2,273z"/>
		<path class="st1" d="M257.3,318.5h-32.1v-68h32.5c8,0,12.7,2,15.5,4.9c2.4,2.5,3.6,5.9,3.6,10.9c0,5.5-0.6,9.8-3,12.9
			c-1.7,2.1-4.3,3.7-8.5,4c4.6,0.4,7.7,2.3,9.6,4.6c2.6,2.9,3.2,7,3.2,11.9c0,6.2-1.1,11-4,13.9
			C271.1,316.8,265.7,318.5,257.3,318.5z M253,267.6c-0.3-0.8-1.1-1-2-1h-3.8v10.8h3.8c0.7,0,2-0.4,2.2-1.8c0.2-0.9,0.3-1.7,0.3-3.8
			C253.4,269.8,253.2,268.5,253,267.6z M253.8,297.3c0-1.6,0-2.6-0.3-3.5c-0.3-1.4-1.1-1.6-2-1.6h-4.3v10.5h4.2
			c1.2,0,1.9-0.5,2.1-1.7C253.8,299.9,253.8,298.8,253.8,297.3z"/>
		<path class="st1" d="M303.9,318.5h-22.3l11.9-68h32.2l11.1,68H314c0,0-1.5-11-1.9-16.7h-6.3C305.3,308.5,303.9,318.5,303.9,318.5z
			 M309.8,273c-0.1-1.4-0.8-6.7-0.8-6.7s-0.6,5.5-0.7,6.7c0,0.7-1,13.3-1.1,14h3.6C310.7,286.4,309.9,273.6,309.8,273z"/>
		<path class="st1" d="M364.3,319.5c-14.5,0-23.3-5.3-23.9-15c-0.2-2.7-0.3-4.3-0.3-7.1h21.3c0,1.6,0.1,2.5,0.3,3.8
			c0.2,1.2,1.1,1.8,2.6,1.8c1.8,0,2.4-1,2.4-2.6c0-3.3-3.4-4.9-6.6-6.7c-1.3-0.8-6.7-4.1-8.6-5.2c-7.5-4.4-11.4-8-11.4-20
			c0-10.5,9.5-19,24.3-19c15.3,0,22.1,8,23.4,16.6c0.3,2.4,0.5,6.3,0.5,6.7H367c0-1.6-0.2-2-0.2-3.2c0-1.3-0.9-2.7-2.4-2.7
			c-2,0-2.6,1.2-2.6,2.6c0,2.5,3.2,4.2,6.8,6.4c1.8,1.1,6.3,4,8.5,5.4c7.2,4.5,11.4,8.7,11.4,18.4
			C388.6,312,380.3,319.5,364.3,319.5z"/>
		<path class="st1" d="M394.3,318.5v-68h42.6v18.9h-20.5v6h19.4v17.9h-19.4v6.7H437v18.5H394.3z"/>
	</g>
	<g>
		<path class="st2" d="M41.6,318.5H13.4v-68h25.8c9,0,15.2,1.4,18.7,5.6c4.2,4.9,4.9,12.8,4.9,26.9c0,20.2-0.5,24.3-4.9,29.4
			C54.5,316.5,49.7,318.5,41.6,318.5z M41.6,285.2c0-8.2-0.3-12.9-0.7-14.5c-0.4-2-1.3-2.6-2.7-2.6h-2.7l-0.1,34.2h3
			c1.4,0,2.5-1.2,2.6-2.8C41.4,296.6,41.6,293.8,41.6,285.2z"/>
		<path class="st2" d="M87.6,318.5H65.3l11.9-68h32.2l11.1,68H97.7c0,0-1.5-11-1.9-16.7h-6.3C89,308.5,87.6,318.5,87.6,318.5z
			 M93.5,273c-0.1-1.4-0.8-6.7-0.8-6.7s-0.6,5.5-0.7,6.7c0,0.7-1,13.3-1.1,14h3.6C94.4,286.4,93.6,273.6,93.5,273z"/>
		<path class="st2" d="M154.5,269.6v48.9h-22.6v-48.9h-11.6v-19.1h45.9v19.1H154.5z"/>
		<path class="st2" d="M187.3,318.5H165l11.9-68h32.2l11.1,68h-22.8c0,0-1.5-11-1.9-16.7h-6.3C188.8,308.5,187.3,318.5,187.3,318.5z
			 M193.2,273c-0.1-1.4-0.8-6.7-0.8-6.7s-0.6,5.5-0.7,6.7c0,0.7-1,13.3-1.1,14h3.6C194.2,286.4,193.3,273.6,193.2,273z"/>
		<path class="st2" d="M257.3,318.5h-32.1v-68h32.5c8,0,12.7,2,15.5,4.9c2.4,2.5,3.6,5.9,3.6,10.9c0,5.5-0.6,9.8-3,12.9
			c-1.7,2.1-4.3,3.7-8.5,4c4.6,0.4,7.7,2.3,9.6,4.6c2.6,2.9,3.2,7,3.2,11.9c0,6.2-1.1,11-4,13.9
			C271.1,316.8,265.7,318.5,257.3,318.5z M253,267.6c-0.3-0.8-1.1-1-2-1h-3.8v10.8h3.8c0.7,0,2-0.4,2.2-1.8c0.2-0.9,0.3-1.7,0.3-3.8
			C253.4,269.8,253.2,268.5,253,267.6z M253.8,297.3c0-1.6,0-2.6-0.3-3.5c-0.3-1.4-1.1-1.6-2-1.6h-4.3v10.5h4.2
			c1.2,0,1.9-0.5,2.1-1.7C253.8,299.9,253.8,298.8,253.8,297.3z"/>
		<path class="st2" d="M303.9,318.5h-22.3l11.9-68h32.2l11.1,68H314c0,0-1.5-11-1.9-16.7h-6.3C305.3,308.5,303.9,318.5,303.9,318.5z
			 M309.8,273c-0.1-1.4-0.8-6.7-0.8-6.7s-0.6,5.5-0.7,6.7c0,0.7-1,13.3-1.1,14h3.6C310.7,286.4,309.9,273.6,309.8,273z"/>
		<path class="st2" d="M364.3,319.5c-14.5,0-23.3-5.3-23.9-15c-0.2-2.7-0.3-4.3-0.3-7.1h21.3c0,1.6,0.1,2.5,0.3,3.8
			c0.2,1.2,1.1,1.8,2.6,1.8c1.8,0,2.4-1,2.4-2.6c0-3.3-3.4-4.9-6.6-6.7c-1.3-0.8-6.7-4.1-8.6-5.2c-7.5-4.4-11.4-8-11.4-20
			c0-10.5,9.5-19,24.3-19c15.3,0,22.1,8,23.4,16.6c0.3,2.4,0.5,6.3,0.5,6.7H367c0-1.6-0.2-2-0.2-3.2c0-1.3-0.9-2.7-2.4-2.7
			c-2,0-2.6,1.2-2.6,2.6c0,2.5,3.2,4.2,6.8,6.4c1.8,1.1,6.3,4,8.5,5.4c7.2,4.5,11.4,8.7,11.4,18.4
			C388.6,312,380.3,319.5,364.3,319.5z"/>
		<path class="st2" d="M394.3,318.5v-68h42.6v18.9h-20.5v6h19.4v17.9h-19.4v6.7H437v18.5H394.3z"/>
	</g>
</g>
<g>
	<g>
		<g>
			<path class="st0" d="M32.8,125.4H10.4c-0.7,0-1-0.5-1-3V82.3h23v40.4C32.4,124.5,32.5,125.4,32.8,125.4z"/>
			<path class="st1" d="M70.6,125.4l-9.8-24.6v24.6H39.4V51h21.5l9.7,25.2V51h22v74.4L70.6,125.4L70.6,125.4z"/>
			<path class="st1" d="M135.6,71.9v53.5h-24.7V71.9H98.2V51h50.2v20.9H135.6z"/>
			<path class="st1" d="M154.2,125.4V51h46.6v20.7h-22.4v6.5h21.3v19.6h-21.3v7.4H201v20.2H154.2z"/>
			<path class="st1" d="M260.5,87.4c-1.6,3.6-3.8,5.3-5.5,6.2l9.7,31.9h-24.3l-7-26.2h-2.6v26.2h-23.6V51.1h34.2
				c7,0,12.3,2,15.8,5.7c3.8,3.9,5.6,9.8,5.6,17.5C262.8,80.2,261.9,84.4,260.5,87.4z M238.2,73.1c-0.3-1.1-0.9-2-2.2-2h-4.8
				c0,0,0,9.2,0,10.3c0.2,0,4.7,0,5-0.1c0.8-0.1,1.6-0.5,1.9-1.3s0.4-2.2,0.4-3.4S238.4,73.8,238.2,73.1z"/>
			<path class="st1" d="M301.5,125.4l-9.8-24.6v24.6h-21.4V51h21.5l9.7,25.2V51h22v74.4L301.5,125.4L301.5,125.4z"/>
			<path class="st1" d="M330.7,125.4V51h46.6v20.7h-22.4v6.5h21.3v19.6h-21.3v7.4h22.6v20.2H330.7z"/>
			<path class="st1" d="M420.3,71.9v53.5h-24.7V71.9h-12.7V51h50.2v20.9H420.3z"/>
		</g>
		<g>
			<path class="st0" d="M32.8,125.4H10.4c-0.7,0-1-0.5-1-3V82.3h23v40.4C32.4,124.5,32.5,125.4,32.8,125.4z"/>
			<path class="st1" d="M70.6,125.4l-9.8-24.6v24.6H39.4V51h21.5l9.7,25.2V51h22v74.4L70.6,125.4L70.6,125.4z"/>
			<path class="st1" d="M135.6,71.9v53.5h-24.7V71.9H98.2V51h50.2v20.9H135.6z"/>
			<path class="st1" d="M154.2,125.4V51h46.6v20.7h-22.4v6.5h21.3v19.6h-21.3v7.4H201v20.2H154.2z"/>
			<path class="st1" d="M260.5,87.4c-1.6,3.6-3.8,5.3-5.5,6.2l9.7,31.9h-24.3l-7-26.2h-2.6v26.2h-23.6V51.1h34.2
				c7,0,12.3,2,15.8,5.7c3.8,3.9,5.6,9.8,5.6,17.5C262.8,80.2,261.9,84.4,260.5,87.4z M238.2,73.1c-0.3-1.1-0.9-2-2.2-2h-4.8
				c0,0,0,9.2,0,10.3c0.2,0,4.7,0,5-0.1c0.8-0.1,1.6-0.5,1.9-1.3s0.4-2.2,0.4-3.4S238.4,73.8,238.2,73.1z"/>
			<path class="st1" d="M301.5,125.4l-9.8-24.6v24.6h-21.4V51h21.5l9.7,25.2V51h22v74.4L301.5,125.4L301.5,125.4z"/>
			<path class="st1" d="M330.7,125.4V51h46.6v20.7h-22.4v6.5h21.3v19.6h-21.3v7.4h22.6v20.2H330.7z"/>
			<path class="st1" d="M420.3,71.9v53.5h-24.7V71.9h-12.7V51h50.2v20.9H420.3z"/>
		</g>
		<g>
			<path d="M32.8,125.4H10.4c-0.7,0-1-0.5-1-3V82.3h23v40.4C32.4,124.5,32.5,125.4,32.8,125.4z"/>
			<path d="M70.6,125.4l-9.8-24.6v24.6H39.4V51h21.5l9.7,25.2V51h22v74.4L70.6,125.4L70.6,125.4z"/>
			<path d="M135.6,71.9v53.5h-24.7V71.9H98.2V51h50.2v20.9H135.6z"/>
			<path d="M154.2,125.4V51h46.6v20.7h-22.4v6.5h21.3v19.6h-21.3v7.4H201v20.2H154.2z"/>
			<path d="M260.5,87.4c-1.6,3.6-3.8,5.3-5.5,6.2l9.7,31.9h-24.3l-7-26.2h-2.6v26.2h-23.6V51.1h34.2c7,0,12.3,2,15.8,5.7
				c3.8,3.9,5.6,9.8,5.6,17.5C262.8,80.2,261.9,84.4,260.5,87.4z M238.2,73.1c-0.3-1.1-0.9-2-2.2-2h-4.8c0,0,0,9.2,0,10.3
				c0.2,0,4.7,0,5-0.1c0.8-0.1,1.6-0.5,1.9-1.3s0.4-2.2,0.4-3.4S238.4,73.8,238.2,73.1z"/>
			<path d="M301.5,125.4l-9.8-24.6v24.6h-21.4V51h21.5l9.7,25.2V51h22v74.4L301.5,125.4L301.5,125.4z"/>
			<path d="M330.7,125.4V51h46.6v20.7h-22.4v6.5h21.3v19.6h-21.3v7.4h22.6v20.2H330.7z"/>
			<path d="M420.3,71.9v53.5h-24.7V71.9h-12.7V51h50.2v20.9H420.3z"/>
		</g>
	</g>
	<polygon points="21.1,43.4 26.1,53.6 37.3,55.2 29.2,63.1 31.1,74.3 21.1,69 11.1,74.3 13,63.1 4.9,55.2 16.1,53.6 	"/>
</g>
<g>
	<g>
		<path d="M43.3,221.8H9.5v-71.6h34.2c8.4,0,13.4,2.2,16.3,5.2c2.5,2.6,3.8,6.2,3.8,11.5c0,5.7-0.6,10.3-3.1,13.5
			c-1.8,2.2-4.6,3.9-9,4.2c4.8,0.4,8.1,2.4,10.1,4.8c2.8,3,3.4,7.4,3.4,12.6c0,6.5-1.2,11.6-4.2,14.6
			C57.8,220,52.2,221.8,43.3,221.8z M38.8,168.2c-0.4-0.8-1.2-1.1-2.2-1.1h-3.9v11.4h3.9c0.7,0,2.1-0.4,2.3-1.9
			c0.2-0.9,0.3-1.8,0.3-4C39.2,170.6,39.1,169.2,38.8,168.2z M39.6,199.4c0-1.7,0-2.7-0.3-3.7c-0.3-1.4-1.2-1.7-2.2-1.7h-4.5v11H37
			c1.3,0,2-0.5,2.2-1.8C39.6,202.2,39.6,201.1,39.6,199.4z"/>
	</g>
	<g>
		<path d="M123.6,166.3c1,4.7,1,9.1,1,18.7c0,10.6-0.4,15.6-1.2,19.6c-1.7,11.5-9.8,18.2-26.3,18.2c-16.3,0-24.5-6.3-26.2-16.9
			c-0.7-3.6-1-9.5-1-20.3c0-9.2,0-14,0.8-18c1.9-9.6,8.4-18.3,26.4-18.3C113.4,149.4,121.5,156.3,123.6,166.3z M100.3,201.6
			c0.5-3.6,0.7-8.7,0.7-15.5c0-6.3-0.1-12.1-0.4-14.4c-0.4-2.1-1-3.5-3.2-3.5s-2.8,1.3-3.1,3.7c-0.3,2.2-0.4,7.8-0.4,14.3
			c0,6.7,0.1,11.7,0.7,15.6c0.2,1.3,0.9,2.5,2.9,2.5C99.2,204.2,100.1,203.1,100.3,201.6z"/>
	</g>
	<g>
		<path d="M164.3,194.1v27.7h-23.7v-27.3l-16.7-44.3h24c0,0,4.4,16.8,4.8,20.7c0.3-3.9,5.2-20.7,5.2-20.7h24L164.3,194.1z"/>
	</g>
	<g>
		<path d="M237.2,222.4h-33.8v-71.5h34.2c8.4,0,13.4,2.2,16.3,5.2c2.5,2.6,3.8,6.2,3.8,11.5c0,5.7-0.6,10.3-3.1,13.5
			c-1.8,2.2-4.6,3.9-9,4.2c4.8,0.4,8.1,2.4,10.1,4.8c2.8,3,3.4,7.4,3.4,12.6c0,6.5-1.2,11.6-4.2,14.6
			C251.7,220.6,246.1,222.4,237.2,222.4z M232.7,168.9c-0.4-0.8-1.2-1.1-2.2-1.1h-3.9v11.4h3.9c0.7,0,2.1-0.4,2.3-1.9
			c0.2-0.9,0.3-1.8,0.3-4C233.1,171.2,233,169.9,232.7,168.9z M233.5,200.1c0-1.7,0-2.7-0.3-3.7c-0.3-1.4-1.2-1.7-2.2-1.7h-4.5v11
			h4.4c1.3,0,2-0.5,2.2-1.8C233.5,202.9,233.5,201.7,233.5,200.1z"/>
	</g>
	<g>
		<path d="M286.2,222.4h-23.5l12.5-71.5h33.9l11.7,71.5h-24c0,0-1.6-11.6-2-17.6h-6.6C287.7,211.9,286.2,222.4,286.2,222.4z
			 M292.4,174.5c-0.1-1.4-0.8-7-0.8-7s-0.6,5.7-0.7,7c0,0.7-1.1,14-1.2,14.7h3.8C293.4,188.7,292.5,175.2,292.4,174.5z"/>
	</g>
	<g>
		<path d="M356,222.4l-9.4-23.7v23.7H326v-71.5h20.7l9.3,24.2v-24.2h21.2v71.5H356z"/>
	</g>
	<g>
		<path d="M413.7,222.4H384v-71.5h27.2c9.5,0,16,1.5,19.6,5.9c4.4,5.2,5.2,13.4,5.2,28.2c0,21.2-0.5,25.6-5.1,30.9
			C427.2,220.4,422.2,222.4,413.7,222.4z M413.7,187.4c0-8.6-0.4-13.5-0.7-15.2c-0.4-2.2-1.3-2.8-2.9-2.8h-2.9l-0.1,36h3.1
			c1.5,0,2.6-1.3,2.8-3C413.4,199.4,413.7,196.4,413.7,187.4z"/>
	</g>
</g>
<g>
	<g>
		<path class="st1" d="M37.6,314.5H9.4v-68h25.8c9,0,15.2,1.4,18.7,5.6c4.2,4.9,4.9,12.8,4.9,26.9c0,20.2-0.5,24.3-4.9,29.4
			C50.5,312.5,45.7,314.5,37.6,314.5z M37.6,281.2c0-8.2-0.3-12.9-0.7-14.5c-0.4-2-1.3-2.6-2.7-2.6h-2.7l-0.1,34.2h3
			c1.4,0,2.5-1.2,2.6-2.8C37.4,292.6,37.6,289.8,37.6,281.2z"/>
		<path class="st1" d="M83.6,314.5H61.3l11.9-68h32.2l11.1,68H93.7c0,0-1.5-11-1.9-16.7h-6.3C85,304.5,83.6,314.5,83.6,314.5z
			 M89.5,269c-0.1-1.4-0.8-6.7-0.8-6.7s-0.6,5.5-0.7,6.7c0,0.7-1,13.3-1.1,14h3.6C90.4,282.4,89.6,269.6,89.5,269z"/>
		<path class="st1" d="M150.5,265.6v48.9h-22.6v-48.9h-11.6v-19.1h45.9v19.1H150.5z"/>
		<path class="st1" d="M183.3,314.5H161l11.9-68h32.2l11.1,68h-22.8c0,0-1.5-11-1.9-16.7h-6.3C184.8,304.5,183.3,314.5,183.3,314.5z
			 M189.2,269c-0.1-1.4-0.8-6.7-0.8-6.7s-0.6,5.5-0.7,6.7c0,0.7-1,13.3-1.1,14h3.6C190.2,282.4,189.3,269.6,189.2,269z"/>
		<path class="st1" d="M253.3,314.5h-32.1v-68h32.5c8,0,12.7,2,15.5,4.9c2.4,2.5,3.6,5.9,3.6,10.9c0,5.5-0.6,9.8-3,12.9
			c-1.7,2.1-4.3,3.7-8.5,4c4.6,0.4,7.7,2.3,9.6,4.6c2.6,2.9,3.2,7,3.2,11.9c0,6.2-1.1,11-4,13.9
			C267.1,312.8,261.7,314.5,253.3,314.5z M249,263.6c-0.3-0.8-1.1-1-2-1h-3.8v10.8h3.8c0.7,0,2-0.4,2.2-1.8c0.2-0.9,0.3-1.7,0.3-3.8
			C249.4,265.8,249.2,264.5,249,263.6z M249.8,293.3c0-1.6,0-2.6-0.3-3.5c-0.3-1.4-1.1-1.6-2-1.6h-4.3v10.5h4.2
			c1.2,0,1.9-0.5,2.1-1.7C249.8,295.9,249.8,294.8,249.8,293.3z"/>
		<path class="st1" d="M299.9,314.5h-22.3l11.9-68h32.2l11.1,68H310c0,0-1.5-11-1.9-16.7h-6.3C301.3,304.5,299.9,314.5,299.9,314.5z
			 M305.8,269c-0.1-1.4-0.8-6.7-0.8-6.7s-0.6,5.5-0.7,6.7c0,0.7-1,13.3-1.1,14h3.6C306.7,282.4,305.9,269.6,305.8,269z"/>
		<path class="st1" d="M360.3,315.5c-14.5,0-23.3-5.3-23.9-15c-0.2-2.7-0.3-4.3-0.3-7.1h21.3c0,1.6,0.1,2.5,0.3,3.8
			c0.2,1.2,1.1,1.8,2.6,1.8c1.8,0,2.4-1,2.4-2.6c0-3.3-3.4-4.9-6.6-6.7c-1.3-0.8-6.7-4.1-8.6-5.2c-7.5-4.4-11.4-8-11.4-20
			c0-10.5,9.5-19,24.3-19c15.3,0,22.1,8,23.4,16.6c0.3,2.4,0.5,6.3,0.5,6.7H363c0-1.6-0.2-2-0.2-3.2c0-1.3-0.9-2.7-2.4-2.7
			c-2,0-2.6,1.2-2.6,2.6c0,2.5,3.2,4.2,6.8,6.4c1.8,1.1,6.3,4,8.5,5.4c7.2,4.5,11.4,8.7,11.4,18.4
			C384.6,308,376.3,315.5,360.3,315.5z"/>
		<path class="st1" d="M390.3,314.5v-68h42.6v18.9h-20.5v6h19.4v17.9h-19.4v6.7H433v18.5H390.3z"/>
	</g>
	<g>
		<path d="M37.6,314.5H9.4v-68h25.8c9,0,15.2,1.4,18.7,5.6c4.2,4.9,4.9,12.8,4.9,26.9c0,20.2-0.5,24.3-4.9,29.4
			C50.5,312.5,45.7,314.5,37.6,314.5z M37.6,281.2c0-8.2-0.3-12.9-0.7-14.5c-0.4-2-1.3-2.6-2.7-2.6h-2.7l-0.1,34.2h3
			c1.4,0,2.5-1.2,2.6-2.8C37.4,292.6,37.6,289.8,37.6,281.2z"/>
		<path d="M83.6,314.5H61.3l11.9-68h32.2l11.1,68H93.7c0,0-1.5-11-1.9-16.7h-6.3C85,304.5,83.6,314.5,83.6,314.5z M89.5,269
			c-0.1-1.4-0.8-6.7-0.8-6.7s-0.6,5.5-0.7,6.7c0,0.7-1,13.3-1.1,14h3.6C90.4,282.4,89.6,269.6,89.5,269z"/>
		<path d="M150.5,265.6v48.9h-22.6v-48.9h-11.6v-19.1h45.9v19.1H150.5z"/>
		<path d="M183.3,314.5H161l11.9-68h32.2l11.1,68h-22.8c0,0-1.5-11-1.9-16.7h-6.3C184.8,304.5,183.3,314.5,183.3,314.5z M189.2,269
			c-0.1-1.4-0.8-6.7-0.8-6.7s-0.6,5.5-0.7,6.7c0,0.7-1,13.3-1.1,14h3.6C190.2,282.4,189.3,269.6,189.2,269z"/>
		<path d="M253.3,314.5h-32.1v-68h32.5c8,0,12.7,2,15.5,4.9c2.4,2.5,3.6,5.9,3.6,10.9c0,5.5-0.6,9.8-3,12.9c-1.7,2.1-4.3,3.7-8.5,4
			c4.6,0.4,7.7,2.3,9.6,4.6c2.6,2.9,3.2,7,3.2,11.9c0,6.2-1.1,11-4,13.9C267.1,312.8,261.7,314.5,253.3,314.5z M249,263.6
			c-0.3-0.8-1.1-1-2-1h-3.8v10.8h3.8c0.7,0,2-0.4,2.2-1.8c0.2-0.9,0.3-1.7,0.3-3.8C249.4,265.8,249.2,264.5,249,263.6z M249.8,293.3
			c0-1.6,0-2.6-0.3-3.5c-0.3-1.4-1.1-1.6-2-1.6h-4.3v10.5h4.2c1.2,0,1.9-0.5,2.1-1.7C249.8,295.9,249.8,294.8,249.8,293.3z"/>
		<path d="M299.9,314.5h-22.3l11.9-68h32.2l11.1,68H310c0,0-1.5-11-1.9-16.7h-6.3C301.3,304.5,299.9,314.5,299.9,314.5z M305.8,269
			c-0.1-1.4-0.8-6.7-0.8-6.7s-0.6,5.5-0.7,6.7c0,0.7-1,13.3-1.1,14h3.6C306.7,282.4,305.9,269.6,305.8,269z"/>
		<path d="M360.3,315.5c-14.5,0-23.3-5.3-23.9-15c-0.2-2.7-0.3-4.3-0.3-7.1h21.3c0,1.6,0.1,2.5,0.3,3.8c0.2,1.2,1.1,1.8,2.6,1.8
			c1.8,0,2.4-1,2.4-2.6c0-3.3-3.4-4.9-6.6-6.7c-1.3-0.8-6.7-4.1-8.6-5.2c-7.5-4.4-11.4-8-11.4-20c0-10.5,9.5-19,24.3-19
			c15.3,0,22.1,8,23.4,16.6c0.3,2.4,0.5,6.3,0.5,6.7H363c0-1.6-0.2-2-0.2-3.2c0-1.3-0.9-2.7-2.4-2.7c-2,0-2.6,1.2-2.6,2.6
			c0,2.5,3.2,4.2,6.8,6.4c1.8,1.1,6.3,4,8.5,5.4c7.2,4.5,11.4,8.7,11.4,18.4C384.6,308,376.3,315.5,360.3,315.5z"/>
		<path d="M390.3,314.5v-68h42.6v18.9h-20.5v6h19.4v17.9h-19.4v6.7H433v18.5H390.3z"/>
	</g>
</g>
<g>
	<g>
		<path class="st1" d="M33.6,310.5H5.4v-68h25.8c9,0,15.2,1.4,18.7,5.6c4.2,4.9,4.9,12.8,4.9,26.9c0,20.2-0.5,24.3-4.9,29.4
			C46.5,308.5,41.7,310.5,33.6,310.5z M33.6,277.2c0-8.2-0.3-12.9-0.7-14.5c-0.4-2-1.3-2.6-2.7-2.6h-2.7l-0.1,34.2h3
			c1.4,0,2.5-1.2,2.6-2.8C33.4,288.6,33.6,285.8,33.6,277.2z"/>
		<path class="st1" d="M79.6,310.5H57.3l11.9-68h32.2l11.1,68H89.7c0,0-1.5-11-1.9-16.7h-6.3C81,300.5,79.6,310.5,79.6,310.5z
			 M85.5,265c-0.1-1.4-0.8-6.7-0.8-6.7s-0.6,5.5-0.7,6.7c0,0.7-1,13.3-1.1,14h3.6C86.4,278.4,85.6,265.6,85.5,265z"/>
		<path class="st1" d="M146.5,261.6v48.9h-22.6v-48.9h-11.6v-19.1h45.9v19.1H146.5z"/>
		<path class="st1" d="M179.3,310.5H157l11.9-68h32.2l11.1,68h-22.8c0,0-1.5-11-1.9-16.7h-6.3C180.8,300.5,179.3,310.5,179.3,310.5z
			 M185.2,265c-0.1-1.4-0.8-6.7-0.8-6.7s-0.6,5.5-0.7,6.7c0,0.7-1,13.3-1.1,14h3.6C186.2,278.4,185.3,265.6,185.2,265z"/>
		<path class="st1" d="M249.3,310.5h-32.1v-68h32.5c8,0,12.7,2,15.5,4.9c2.4,2.5,3.6,5.9,3.6,10.9c0,5.5-0.6,9.8-3,12.9
			c-1.7,2.1-4.3,3.7-8.5,4c4.6,0.4,7.7,2.3,9.6,4.6c2.6,2.9,3.2,7,3.2,11.9c0,6.2-1.1,11-4,13.9
			C263.1,308.8,257.7,310.5,249.3,310.5z M245,259.6c-0.3-0.8-1.1-1-2-1h-3.8v10.8h3.8c0.7,0,2-0.4,2.2-1.8c0.2-0.9,0.3-1.7,0.3-3.8
			C245.4,261.8,245.2,260.5,245,259.6z M245.8,289.3c0-1.6,0-2.6-0.3-3.5c-0.3-1.4-1.1-1.6-2-1.6h-4.3v10.5h4.2
			c1.2,0,1.9-0.5,2.1-1.7C245.8,291.9,245.8,290.8,245.8,289.3z"/>
		<path class="st1" d="M295.9,310.5h-22.3l11.9-68h32.2l11.1,68H306c0,0-1.5-11-1.9-16.7h-6.3C297.3,300.5,295.9,310.5,295.9,310.5z
			 M301.8,265c-0.1-1.4-0.8-6.7-0.8-6.7s-0.6,5.5-0.7,6.7c0,0.7-1,13.3-1.1,14h3.6C302.7,278.4,301.9,265.6,301.8,265z"/>
		<path class="st1" d="M356.3,311.5c-14.5,0-23.3-5.3-23.9-15c-0.2-2.7-0.3-4.3-0.3-7.1h21.3c0,1.6,0.1,2.5,0.3,3.8
			c0.2,1.2,1.1,1.8,2.6,1.8c1.8,0,2.4-1,2.4-2.6c0-3.3-3.4-4.9-6.6-6.7c-1.3-0.8-6.7-4.1-8.6-5.2c-7.5-4.4-11.4-8-11.4-20
			c0-10.5,9.5-19,24.3-19c15.3,0,22.1,8,23.4,16.6c0.3,2.4,0.5,6.3,0.5,6.7H359c0-1.6-0.2-2-0.2-3.2c0-1.3-0.9-2.7-2.4-2.7
			c-2,0-2.6,1.2-2.6,2.6c0,2.5,3.2,4.2,6.8,6.4c1.8,1.1,6.3,4,8.5,5.4c7.2,4.5,11.4,8.7,11.4,18.4
			C380.6,304,372.3,311.5,356.3,311.5z"/>
		<path class="st1" d="M386.3,310.5v-68h42.6v18.9h-20.5v6h19.4v17.9h-19.4v6.7H429v18.5H386.3z"/>
	</g>
	<g>
		<path class="st3" d="M33.6,310.5H5.4v-68h25.8c9,0,15.2,1.4,18.7,5.6c4.2,4.9,4.9,12.8,4.9,26.9c0,20.2-0.5,24.3-4.9,29.4
			C46.5,308.5,41.7,310.5,33.6,310.5z M33.6,277.2c0-8.2-0.3-12.9-0.7-14.5c-0.4-2-1.3-2.6-2.7-2.6h-2.7l-0.1,34.2h3
			c1.4,0,2.5-1.2,2.6-2.8C33.4,288.6,33.6,285.8,33.6,277.2z"/>
		<path class="st3" d="M79.6,310.5H57.3l11.9-68h32.2l11.1,68H89.7c0,0-1.5-11-1.9-16.7h-6.3C81,300.5,79.6,310.5,79.6,310.5z
			 M85.5,265c-0.1-1.4-0.8-6.7-0.8-6.7s-0.6,5.5-0.7,6.7c0,0.7-1,13.3-1.1,14h3.6C86.4,278.4,85.6,265.6,85.5,265z"/>
		<path class="st3" d="M146.5,261.6v48.9h-22.6v-48.9h-11.6v-19.1h45.9v19.1H146.5z"/>
		<path class="st3" d="M179.3,310.5H157l11.9-68h32.2l11.1,68h-22.8c0,0-1.5-11-1.9-16.7h-6.3C180.8,300.5,179.3,310.5,179.3,310.5z
			 M185.2,265c-0.1-1.4-0.8-6.7-0.8-6.7s-0.6,5.5-0.7,6.7c0,0.7-1,13.3-1.1,14h3.6C186.2,278.4,185.3,265.6,185.2,265z"/>
		<path class="st3" d="M249.3,310.5h-32.1v-68h32.5c8,0,12.7,2,15.5,4.9c2.4,2.5,3.6,5.9,3.6,10.9c0,5.5-0.6,9.8-3,12.9
			c-1.7,2.1-4.3,3.7-8.5,4c4.6,0.4,7.7,2.3,9.6,4.6c2.6,2.9,3.2,7,3.2,11.9c0,6.2-1.1,11-4,13.9
			C263.1,308.8,257.7,310.5,249.3,310.5z M245,259.6c-0.3-0.8-1.1-1-2-1h-3.8v10.8h3.8c0.7,0,2-0.4,2.2-1.8c0.2-0.9,0.3-1.7,0.3-3.8
			C245.4,261.8,245.2,260.5,245,259.6z M245.8,289.3c0-1.6,0-2.6-0.3-3.5c-0.3-1.4-1.1-1.6-2-1.6h-4.3v10.5h4.2
			c1.2,0,1.9-0.5,2.1-1.7C245.8,291.9,245.8,290.8,245.8,289.3z"/>
		<path class="st3" d="M295.9,310.5h-22.3l11.9-68h32.2l11.1,68H306c0,0-1.5-11-1.9-16.7h-6.3C297.3,300.5,295.9,310.5,295.9,310.5z
			 M301.8,265c-0.1-1.4-0.8-6.7-0.8-6.7s-0.6,5.5-0.7,6.7c0,0.7-1,13.3-1.1,14h3.6C302.7,278.4,301.9,265.6,301.8,265z"/>
		<path class="st3" d="M356.3,311.5c-14.5,0-23.3-5.3-23.9-15c-0.2-2.7-0.3-4.3-0.3-7.1h21.3c0,1.6,0.1,2.5,0.3,3.8
			c0.2,1.2,1.1,1.8,2.6,1.8c1.8,0,2.4-1,2.4-2.6c0-3.3-3.4-4.9-6.6-6.7c-1.3-0.8-6.7-4.1-8.6-5.2c-7.5-4.4-11.4-8-11.4-20
			c0-10.5,9.5-19,24.3-19c15.3,0,22.1,8,23.4,16.6c0.3,2.4,0.5,6.3,0.5,6.7H359c0-1.6-0.2-2-0.2-3.2c0-1.3-0.9-2.7-2.4-2.7
			c-2,0-2.6,1.2-2.6,2.6c0,2.5,3.2,4.2,6.8,6.4c1.8,1.1,6.3,4,8.5,5.4c7.2,4.5,11.4,8.7,11.4,18.4
			C380.6,304,372.3,311.5,356.3,311.5z"/>
		<path class="st3" d="M386.3,310.5v-68h42.6v18.9h-20.5v6h19.4v17.9h-19.4v6.7H429v18.5H386.3z"/>
	</g>
</g>
<g>
	<g>
		<g>
			<path class="st0" d="M28.8,121.4H6.4c-0.7,0-1-0.5-1-3V78.3h23v40.4C28.4,120.5,28.5,121.4,28.8,121.4z"/>
			<path class="st1" d="M66.6,121.4l-9.8-24.6v24.6H35.4V47h21.5l9.7,25.2V47h22v74.4L66.6,121.4L66.6,121.4z"/>
			<path class="st1" d="M131.6,67.9v53.5h-24.7V67.9H94.2V47h50.2v20.9H131.6z"/>
			<path class="st1" d="M150.2,121.4V47h46.6v20.7h-22.4v6.5h21.3v19.6h-21.3v7.4H197v20.2H150.2z"/>
			<path class="st1" d="M256.5,83.4c-1.6,3.6-3.8,5.3-5.5,6.2l9.7,31.9h-24.3l-7-26.2h-2.6v26.2h-23.6V47.1h34.2
				c7,0,12.3,2,15.8,5.7c3.8,3.9,5.6,9.8,5.6,17.5C258.8,76.2,257.9,80.4,256.5,83.4z M234.2,69.1c-0.3-1.1-0.9-2-2.2-2h-4.8
				c0,0,0,9.2,0,10.3c0.2,0,4.7,0,5-0.1c0.8-0.1,1.6-0.5,1.9-1.3s0.4-2.2,0.4-3.4S234.4,69.8,234.2,69.1z"/>
			<path class="st1" d="M297.5,121.4l-9.8-24.6v24.6h-21.4V47h21.5l9.7,25.2V47h22v74.4L297.5,121.4L297.5,121.4z"/>
			<path class="st1" d="M326.7,121.4V47h46.6v20.7h-22.4v6.5h21.3v19.6h-21.3v7.4h22.6v20.2H326.7z"/>
			<path class="st1" d="M416.3,67.9v53.5h-24.7V67.9h-12.7V47h50.2v20.9H416.3z"/>
		</g>
		<g>
			<path class="st0" d="M28.8,121.4H6.4c-0.7,0-1-0.5-1-3V78.3h23v40.4C28.4,120.5,28.5,121.4,28.8,121.4z"/>
			<path class="st1" d="M66.6,121.4l-9.8-24.6v24.6H35.4V47h21.5l9.7,25.2V47h22v74.4L66.6,121.4L66.6,121.4z"/>
			<path class="st1" d="M131.6,67.9v53.5h-24.7V67.9H94.2V47h50.2v20.9H131.6z"/>
			<path class="st1" d="M150.2,121.4V47h46.6v20.7h-22.4v6.5h21.3v19.6h-21.3v7.4H197v20.2H150.2z"/>
			<path class="st1" d="M256.5,83.4c-1.6,3.6-3.8,5.3-5.5,6.2l9.7,31.9h-24.3l-7-26.2h-2.6v26.2h-23.6V47.1h34.2
				c7,0,12.3,2,15.8,5.7c3.8,3.9,5.6,9.8,5.6,17.5C258.8,76.2,257.9,80.4,256.5,83.4z M234.2,69.1c-0.3-1.1-0.9-2-2.2-2h-4.8
				c0,0,0,9.2,0,10.3c0.2,0,4.7,0,5-0.1c0.8-0.1,1.6-0.5,1.9-1.3s0.4-2.2,0.4-3.4S234.4,69.8,234.2,69.1z"/>
			<path class="st1" d="M297.5,121.4l-9.8-24.6v24.6h-21.4V47h21.5l9.7,25.2V47h22v74.4L297.5,121.4L297.5,121.4z"/>
			<path class="st1" d="M326.7,121.4V47h46.6v20.7h-22.4v6.5h21.3v19.6h-21.3v7.4h22.6v20.2H326.7z"/>
			<path class="st1" d="M416.3,67.9v53.5h-24.7V67.9h-12.7V47h50.2v20.9H416.3z"/>
		</g>
		<g>
			<path class="st3" d="M28.8,121.4H6.4c-0.7,0-1-0.5-1-3V78.3h23v40.4C28.4,120.5,28.5,121.4,28.8,121.4z"/>
			<path class="st3" d="M66.6,121.4l-9.8-24.6v24.6H35.4V47h21.5l9.7,25.2V47h22v74.4L66.6,121.4L66.6,121.4z"/>
			<path class="st3" d="M131.6,67.9v53.5h-24.7V67.9H94.2V47h50.2v20.9H131.6z"/>
			<path class="st3" d="M150.2,121.4V47h46.6v20.7h-22.4v6.5h21.3v19.6h-21.3v7.4H197v20.2H150.2z"/>
			<path class="st3" d="M256.5,83.4c-1.6,3.6-3.8,5.3-5.5,6.2l9.7,31.9h-24.3l-7-26.2h-2.6v26.2h-23.6V47.1h34.2
				c7,0,12.3,2,15.8,5.7c3.8,3.9,5.6,9.8,5.6,17.5C258.8,76.2,257.9,80.4,256.5,83.4z M234.2,69.1c-0.3-1.1-0.9-2-2.2-2h-4.8
				c0,0,0,9.2,0,10.3c0.2,0,4.7,0,5-0.1c0.8-0.1,1.6-0.5,1.9-1.3s0.4-2.2,0.4-3.4S234.4,69.8,234.2,69.1z"/>
			<path class="st3" d="M297.5,121.4l-9.8-24.6v24.6h-21.4V47h21.5l9.7,25.2V47h22v74.4L297.5,121.4L297.5,121.4z"/>
			<path class="st3" d="M326.7,121.4V47h46.6v20.7h-22.4v6.5h21.3v19.6h-21.3v7.4h22.6v20.2H326.7z"/>
			<path class="st3" d="M416.3,67.9v53.5h-24.7V67.9h-12.7V47h50.2v20.9H416.3z"/>
		</g>
	</g>
	<polygon class="st4" points="17.1,39.4 22.1,49.6 33.3,51.2 25.2,59.1 27.1,70.3 17.1,65 7.1,70.3 9,59.1 0.9,51.2 12.1,49.6 	"/>
</g>
<g>
	<path class="st4" d="M39.3,217.8H5.5v-71.6h34.2c8.4,0,13.4,2.2,16.3,5.2c2.5,2.6,3.8,6.2,3.8,11.5c0,5.7-0.6,10.3-3.1,13.5
		c-1.8,2.2-4.6,3.9-9,4.2c4.8,0.4,8.1,2.4,10.1,4.8c2.8,3,3.4,7.4,3.4,12.6c0,6.5-1.2,11.6-4.2,14.6C53.8,216,48.2,217.8,39.3,217.8
		z M34.8,164.2c-0.4-0.8-1.2-1.1-2.2-1.1h-3.9v11.4h3.9c0.7,0,2.1-0.4,2.3-1.9c0.2-0.9,0.3-1.8,0.3-4
		C35.2,166.6,35.1,165.2,34.8,164.2z M35.6,195.4c0-1.7,0-2.7-0.3-3.7c-0.3-1.4-1.2-1.7-2.2-1.7h-4.5v11H33c1.3,0,2-0.5,2.2-1.8
		C35.6,198.2,35.6,197.1,35.6,195.4z"/>
	<path class="st4" d="M119.6,162.3c1,4.7,1,9.1,1,18.7c0,10.6-0.4,15.6-1.2,19.6c-1.7,11.5-9.8,18.2-26.3,18.2
		c-16.3,0-24.5-6.3-26.2-16.9c-0.7-3.6-1-9.5-1-20.3c0-9.2,0-14,0.8-18c1.9-9.6,8.4-18.3,26.4-18.3
		C109.4,145.4,117.5,152.3,119.6,162.3z M96.3,197.6c0.5-3.6,0.7-8.7,0.7-15.5c0-6.3-0.1-12.1-0.4-14.4c-0.4-2.1-1-3.5-3.2-3.5
		s-2.8,1.3-3.1,3.7c-0.3,2.2-0.4,7.8-0.4,14.3c0,6.7,0.1,11.7,0.7,15.6c0.2,1.3,0.9,2.5,2.9,2.5C95.2,200.2,96.1,199.1,96.3,197.6z"
		/>
	<path class="st4" d="M160.3,190.1v27.7h-23.7v-27.3l-16.7-44.3h24c0,0,4.4,16.8,4.8,20.7c0.3-3.9,5.2-20.7,5.2-20.7h24L160.3,190.1
		z"/>
	<path class="st4" d="M233.2,218.4h-33.8v-71.5h34.2c8.4,0,13.4,2.2,16.3,5.2c2.5,2.6,3.8,6.2,3.8,11.5c0,5.7-0.6,10.3-3.1,13.5
		c-1.8,2.2-4.6,3.9-9,4.2c4.8,0.4,8.1,2.4,10.1,4.8c2.8,3,3.4,7.4,3.4,12.6c0,6.5-1.2,11.6-4.2,14.6
		C247.7,216.6,242.1,218.4,233.2,218.4z M228.7,164.9c-0.4-0.8-1.2-1.1-2.2-1.1h-3.9v11.4h3.9c0.7,0,2.1-0.4,2.3-1.9
		c0.2-0.9,0.3-1.8,0.3-4C229.1,167.2,229,165.9,228.7,164.9z M229.5,196.1c0-1.7,0-2.7-0.3-3.7c-0.3-1.4-1.2-1.7-2.2-1.7h-4.5v11
		h4.4c1.3,0,2-0.5,2.2-1.8C229.5,198.9,229.5,197.7,229.5,196.1z"/>
	<path class="st4" d="M282.2,218.4h-23.5l12.5-71.5h33.9l11.7,71.5h-24c0,0-1.6-11.6-2-17.6h-6.6
		C283.7,207.9,282.2,218.4,282.2,218.4z M288.4,170.5c-0.1-1.4-0.8-7-0.8-7s-0.6,5.7-0.7,7c0,0.7-1.1,14-1.2,14.7h3.8
		C289.4,184.7,288.5,171.2,288.4,170.5z"/>
	<path class="st4" d="M352,218.4l-9.4-23.7v23.7H322v-71.5h20.7l9.3,24.2v-24.2h21.2v71.5H352z"/>
	<path class="st4" d="M409.7,218.4H380v-71.5h27.2c9.5,0,16,1.5,19.6,5.9c4.4,5.2,5.2,13.4,5.2,28.2c0,21.2-0.5,25.6-5.1,30.9
		C423.2,216.4,418.2,218.4,409.7,218.4z M409.7,183.4c0-8.6-0.4-13.5-0.7-15.2c-0.4-2.2-1.3-2.8-2.9-2.8h-2.9l-0.1,36h3.1
		c1.5,0,2.6-1.3,2.8-3C409.4,195.4,409.7,192.4,409.7,183.4z"/>
</g>
<g>
	<polygon class="st2" points="335.8,51.8 370.1,45.4 335.6,39.5 345,25.9 331.8,35.3 325.6,0.9 319.7,35.5 306.1,25.9 315.5,39.5 
		281.1,45.4 315.5,51.8 306.1,64.9 319.7,55.5 325.6,89.9 331.9,55.8 345,64.9 	"/>
</g>
</svg>
