<?xml version="1.0" encoding="utf-8"?>
<!-- Generator: Adobe Illustrator 22.1.0, SVG Export Plug-In . SVG Version: 6.00 Build 0)  -->
<svg version="1.1" id="Layer_1" xmlns="http://www.w3.org/2000/svg" xmlns:xlink="http://www.w3.org/1999/xlink" x="0px" y="0px"
	 viewBox="0 0 441.5 283" style="enable-background:new 0 0 441.5 283;" xml:space="preserve">
<style type="text/css">
	.st0{fill:#FFFF2C;}
	.st1{fill:#D5218C;}
	.st2{fill:#FFFFFF;}
	.st3{fill:#F932A9;}
	.st4{fill:#FEF200;}
</style>
<g>
	<g>
		<g>
			<g>
				<path class="st0" d="M36.8,91.2H14.4c-0.7,0-1-0.5-1-3V48.1h23v40.4C36.4,90.3,36.5,91.2,36.8,91.2z"/>
			</g>
			<g>
				<path class="st1" d="M74.6,91.2l-9.8-24.6v24.6H43.4V16.8h21.5L74.6,42V16.8h22v74.4L74.6,91.2L74.6,91.2z"/>
			</g>
			<g>
				<path class="st1" d="M139.6,37.7v53.5h-24.7V37.7h-12.7V16.8h50.2v20.9H139.6z"/>
			</g>
			<g>
				<path class="st1" d="M158.2,91.2V16.8h46.6v20.7h-22.4V44h21.3v19.6h-21.3V71H205v20.2L158.2,91.2L158.2,91.2z"/>
			</g>
			<g>
				<path class="st1" d="M264.5,53.2c-1.6,3.6-3.8,5.3-5.5,6.2l9.7,31.9h-24.3l-7-26.2h-2.6v26.2h-23.6V16.9h34.2
					c7,0,12.3,2,15.8,5.7c3.8,3.9,5.6,9.8,5.6,17.5C266.8,46,265.9,50.2,264.5,53.2z M242.2,38.9c-0.3-1.1-0.9-2-2.2-2h-4.8
					c0,0,0,9.2,0,10.3c0.2,0,4.7,0,5-0.1c0.8-0.1,1.6-0.5,1.9-1.3s0.4-2.2,0.4-3.4S242.4,39.6,242.2,38.9z"/>
			</g>
			<g>
				<path class="st1" d="M305.5,91.2l-9.8-24.6v24.6h-21.4V16.8h21.5l9.7,25.2V16.8h22v74.4L305.5,91.2L305.5,91.2z"/>
			</g>
			<g>
				<path class="st1" d="M334.7,91.2V16.8h46.6v20.7h-22.4V44h21.3v19.6h-21.3V71h22.6v20.2L334.7,91.2L334.7,91.2z"/>
			</g>
			<g>
				<path class="st1" d="M424.3,37.7v53.5h-24.7V37.7h-12.7V16.8h50.2v20.9H424.3z"/>
			</g>
		</g>
		<g>
			<g>
				<path class="st0" d="M36.8,91.2H14.4c-0.7,0-1-0.5-1-3V48.1h23v40.4C36.4,90.3,36.5,91.2,36.8,91.2z"/>
			</g>
			<g>
				<path class="st1" d="M74.6,91.2l-9.8-24.6v24.6H43.4V16.8h21.5L74.6,42V16.8h22v74.4L74.6,91.2L74.6,91.2z"/>
			</g>
			<g>
				<path class="st1" d="M139.6,37.7v53.5h-24.7V37.7h-12.7V16.8h50.2v20.9H139.6z"/>
			</g>
			<g>
				<path class="st1" d="M158.2,91.2V16.8h46.6v20.7h-22.4V44h21.3v19.6h-21.3V71H205v20.2L158.2,91.2L158.2,91.2z"/>
			</g>
			<g>
				<path class="st1" d="M264.5,53.2c-1.6,3.6-3.8,5.3-5.5,6.2l9.7,31.9h-24.3l-7-26.2h-2.6v26.2h-23.6V16.9h34.2
					c7,0,12.3,2,15.8,5.7c3.8,3.9,5.6,9.8,5.6,17.5C266.8,46,265.9,50.2,264.5,53.2z M242.2,38.9c-0.3-1.1-0.9-2-2.2-2h-4.8
					c0,0,0,9.2,0,10.3c0.2,0,4.7,0,5-0.1c0.8-0.1,1.6-0.5,1.9-1.3s0.4-2.2,0.4-3.4S242.4,39.6,242.2,38.9z"/>
			</g>
			<g>
				<path class="st1" d="M305.5,91.2l-9.8-24.6v24.6h-21.4V16.8h21.5l9.7,25.2V16.8h22v74.4L305.5,91.2L305.5,91.2z"/>
			</g>
			<g>
				<path class="st1" d="M334.7,91.2V16.8h46.6v20.7h-22.4V44h21.3v19.6h-21.3V71h22.6v20.2L334.7,91.2L334.7,91.2z"/>
			</g>
			<g>
				<path class="st1" d="M424.3,37.7v53.5h-24.7V37.7h-12.7V16.8h50.2v20.9H424.3z"/>
			</g>
		</g>
		<g>
			<g>
				<path class="st2" d="M36.8,91.2H14.4c-0.7,0-1-0.5-1-3V48.1h23v40.4C36.4,90.3,36.5,91.2,36.8,91.2z"/>
				<path class="st2" d="M35.4,49.2v39.4c0,0.7,0,1.2,0,1.7H14.5c-0.1-0.2-0.2-0.7-0.2-2V49.2L35.4,49.2 M36.4,48.2h-23v40.1
					c0,2.4,0.4,3,1,3h22.4c-0.3-0.1-0.4-0.9-0.4-2.7V48.2L36.4,48.2z"/>
			</g>
			<g>
				<path class="st2" d="M74.6,91.2l-9.8-24.6v24.6H43.4V16.8h21.5L74.6,42V16.8h22v74.4L74.6,91.2L74.6,91.2z"/>
				<path class="st2" d="M95.6,17.9v72.4H75.3l-9.5-24l-1.9-4.9v5.2v23.6H44.5V17.8h19.8l9.4,24.5l1.9,5V42V17.8L95.6,17.9
					 M96.6,16.9h-22V42l-9.7-25.2H43.4v74.4h21.4V66.6l9.8,24.6h22V16.9L96.6,16.9z"/>
			</g>
			<g>
				<path class="st2" d="M139.6,37.7v53.5h-24.7V37.7h-12.7V16.8h50.2v20.9H139.6z"/>
				<path class="st2" d="M151.4,17.9v18.9h-11.8h-1v1v52.5h-22.7V37.8v-1h-1h-11.7V17.9H151.4 M152.4,16.9h-50.2v20.9h12.7v53.5
					h24.7V37.8h12.8V16.9L152.4,16.9z"/>
			</g>
			<g>
				<path class="st2" d="M158.2,91.2V16.8h46.6v20.7h-22.4V44h21.3v19.6h-21.3V71H205v20.2L158.2,91.2L158.2,91.2z"/>
				<path class="st2" d="M203.8,17.9v18.7h-21.4h-1v1v6.5v1h1h20.3v17.6h-20.3h-1v1v7.4v1h1H204v18.2h-44.8V17.9H203.8 M204.8,16.9
					h-46.6v74.4H205V71h-22.6v-7.4h21.3V44h-21.3v-6.5h22.4V16.9L204.8,16.9z"/>
			</g>
			<g>
				<path class="st2" d="M264.5,53.2c-1.6,3.6-3.8,5.3-5.5,6.2l9.7,31.9h-24.3l-7-26.2h-2.6v26.2h-23.6V16.9h34.2
					c7,0,12.3,2,15.8,5.7c3.8,3.9,5.6,9.8,5.6,17.5C266.8,46,265.9,50.2,264.5,53.2z M242.2,38.9c-0.3-1.1-0.9-2-2.2-2h-4.8
					c0,0,0,9.2,0,10.3c0.2,0,4.7,0,5-0.1c0.8-0.1,1.6-0.5,1.9-1.3s0.4-2.2,0.4-3.4S242.4,39.6,242.2,38.9z"/>
				<path class="st2" d="M245.4,17.9c6.7,0,11.7,1.8,15,5.4c3.6,3.7,5.3,9.2,5.3,16.8c0,5.3-0.8,9.6-2.2,12.7
					c-1.2,2.7-2.9,4.6-5,5.7l-0.8,0.4l0.2,0.8l9.3,30.6H245l-6.8-25.5l-0.2-0.7h-0.8h-2.4h-1v1v25.2h-21.6V17.9H245.4 M234.2,48.2h1
					c4,0,4.9-0.1,5.2-0.1c1.4-0.2,2.3-0.9,2.7-2c0.4-1.1,0.4-2.8,0.4-3.8c0-1.1-0.1-2.8-0.3-3.7c-0.4-1.8-1.6-2.7-3.2-2.7h-4.8h-1v1
					v10.3L234.2,48.2 M245.4,16.9h-34.2v74.4h23.6V65.1h2.5l7,26.2h24.3l-9.7-31.9c1.7-0.8,3.9-2.5,5.5-6.2c1.4-3,2.3-7.2,2.3-13.1
					c0-7.7-1.8-13.6-5.6-17.5C257.8,18.8,252.4,16.9,245.4,16.9L245.4,16.9z M235.2,47.2c0-1,0-10.3,0-10.3h4.8c1.3,0,2,0.8,2.2,2
					c0.2,0.7,0.3,2.2,0.3,3.4s-0.1,2.6-0.4,3.4c-0.3,0.8-1,1.2-1.9,1.3C239.9,47.2,235.4,47.2,235.2,47.2L235.2,47.2z"/>
			</g>
			<g>
				<path class="st2" d="M305.5,91.2l-9.8-24.6v24.6h-21.4V16.8h21.5l9.7,25.2V16.8h22v74.4L305.5,91.2L305.5,91.2z"/>
				<path class="st2" d="M326.5,17.9v72.4h-20.3l-9.5-24l-1.9-4.9v5.2v23.6h-19.4V17.8h19.8l9.4,24.5l1.9,5V42V17.8L326.5,17.9
					 M327.5,16.9h-22V42l-9.7-25.2h-21.5v74.4h21.4V66.6l9.8,24.6h22L327.5,16.9L327.5,16.9z"/>
			</g>
			<g>
				<path class="st2" d="M334.7,91.2V16.8h46.6v20.7h-22.4V44h21.3v19.6h-21.3V71h22.6v20.2L334.7,91.2L334.7,91.2z"/>
				<path class="st2" d="M380.3,17.9v18.7h-21.4h-1v1v6.5v1h1h20.3v17.6h-20.3h-1v1v7.4v1h1h21.6v18.2h-44.8V17.9H380.3 M381.3,16.9
					h-46.6v74.4h46.8V71h-22.6v-7.4h21.3V44h-21.3v-6.5h22.4L381.3,16.9L381.3,16.9z"/>
			</g>
			<g>
				<path class="st2" d="M424.3,37.7v53.5h-24.7V37.7h-12.7V16.8h50.2v20.9H424.3z"/>
				<path class="st2" d="M436.1,17.9v18.9h-11.8h-1v1v52.5h-22.7V37.8v-1h-1h-11.7V17.9H436.1 M437.1,16.9h-50.2v20.9h12.7v53.5
					h24.7V37.8h12.8V16.9L437.1,16.9z"/>
			</g>
		</g>
	</g>
	<g>
		<polygon class="st2" points="25.1,9.2 30.1,19.4 41.3,21 33.2,28.9 35.1,40.1 25.1,34.8 15.1,40.1 17,28.9 8.9,21 20.1,19.4 		"/>
	</g>
</g>
<g>
	<g>
		<path class="st2" d="M47.3,187.6H13.5V116h34.2c8.4,0,13.4,2.2,16.3,5.2c2.5,2.6,3.8,6.2,3.8,11.5c0,5.7-0.6,10.3-3.1,13.5
			c-1.8,2.2-4.6,3.9-9,4.2c4.8,0.4,8.1,2.4,10.1,4.8c2.8,3,3.4,7.4,3.4,12.6c0,6.5-1.2,11.6-4.2,14.6
			C61.8,185.8,56.2,187.6,47.3,187.6z M42.8,134c-0.4-0.8-1.2-1.1-2.2-1.1h-3.9v11.4h3.9c0.7,0,2.1-0.4,2.3-1.9
			c0.2-0.9,0.3-1.8,0.3-4C43.2,136.4,43.1,135,42.8,134z M43.6,165.2c0-1.7,0-2.7-0.3-3.7c-0.3-1.4-1.2-1.7-2.2-1.7h-4.5v11H41
			c1.3,0,2-0.5,2.2-1.8C43.6,168,43.6,166.9,43.6,165.2z"/>
	</g>
	<g>
		<path class="st2" d="M127.6,132.1c1,4.7,1,9.1,1,18.7c0,10.6-0.4,15.6-1.2,19.6c-1.7,11.5-9.8,18.2-26.3,18.2
			c-16.3,0-24.5-6.3-26.2-16.9c-0.7-3.6-1-9.5-1-20.3c0-9.2,0-14,0.8-18c1.9-9.6,8.4-18.3,26.4-18.3
			C117.4,115.2,125.5,122.1,127.6,132.1z M104.3,167.4c0.5-3.6,0.7-8.7,0.7-15.5c0-6.3-0.1-12.1-0.4-14.4c-0.4-2.1-1-3.5-3.2-3.5
			s-2.8,1.3-3.1,3.7c-0.3,2.2-0.4,7.8-0.4,14.3c0,6.7,0.1,11.7,0.7,15.6c0.2,1.3,0.9,2.5,2.9,2.5C103.2,170,104.1,168.9,104.3,167.4
			z"/>
	</g>
	<g>
		<path class="st2" d="M168.3,159.9v27.7h-23.7v-27.3L127.9,116h24c0,0,4.4,16.8,4.8,20.7c0.3-3.9,5.2-20.7,5.2-20.7h24L168.3,159.9
			z"/>
	</g>
	<g>
		<path class="st2" d="M241.2,188.2h-33.8v-71.5h34.2c8.4,0,13.4,2.2,16.3,5.2c2.5,2.6,3.8,6.2,3.8,11.5c0,5.7-0.6,10.3-3.1,13.5
			c-1.8,2.2-4.6,3.9-9,4.2c4.8,0.4,8.1,2.4,10.1,4.8c2.8,3,3.4,7.4,3.4,12.6c0,6.5-1.2,11.6-4.2,14.6
			C255.7,186.4,250.1,188.2,241.2,188.2z M236.7,134.7c-0.4-0.8-1.2-1.1-2.2-1.1h-3.9V145h3.9c0.7,0,2.1-0.4,2.3-1.9
			c0.2-0.9,0.3-1.8,0.3-4C237.1,137,237,135.7,236.7,134.7z M237.5,165.9c0-1.7,0-2.7-0.3-3.7c-0.3-1.4-1.2-1.7-2.2-1.7h-4.5v11h4.4
			c1.3,0,2-0.5,2.2-1.8C237.5,168.7,237.5,167.5,237.5,165.9z"/>
	</g>
	<g>
		<path class="st2" d="M290.2,188.2h-23.5l12.5-71.5h33.9l11.7,71.5h-24c0,0-1.6-11.6-2-17.6h-6.6
			C291.7,177.7,290.2,188.2,290.2,188.2z M296.4,140.3c-0.1-1.4-0.8-7-0.8-7s-0.6,5.7-0.7,7c0,0.7-1.1,14-1.2,14.7h3.8
			C297.4,154.5,296.5,141,296.4,140.3z"/>
	</g>
	<g>
		<path class="st2" d="M360,188.2l-9.4-23.7v23.7H330v-71.5h20.7l9.3,24.2v-24.2h21.2v71.5H360z"/>
	</g>
	<g>
		<path class="st2" d="M417.7,188.2H388v-71.5h27.2c9.5,0,16,1.5,19.6,5.9c4.4,5.2,5.2,13.4,5.2,28.2c0,21.2-0.5,25.6-5.1,30.9
			C431.2,186.2,426.2,188.2,417.7,188.2z M417.7,153.2c0-8.6-0.4-13.5-0.7-15.2c-0.4-2.2-1.3-2.8-2.9-2.8h-2.9l-0.1,36h3.1
			c1.5,0,2.6-1.3,2.8-3C417.4,165.2,417.7,162.2,417.7,153.2z"/>
	</g>
</g>
<g>
	<g>
		<path class="st1" d="M41.6,280.3H13.4v-68h25.8c9,0,15.2,1.4,18.7,5.6c4.2,4.9,4.9,12.8,4.9,26.9c0,20.2-0.5,24.3-4.9,29.4
			C54.5,278.3,49.7,280.3,41.6,280.3z M41.6,247c0-8.2-0.3-12.9-0.7-14.5c-0.4-2-1.3-2.6-2.7-2.6h-2.7l-0.1,34.2h3
			c1.4,0,2.5-1.2,2.6-2.8C41.4,258.4,41.6,255.6,41.6,247z"/>
		<path class="st1" d="M87.6,280.3H65.3l11.9-68h32.2l11.1,68H97.7c0,0-1.5-11-1.9-16.7h-6.3C89,270.3,87.6,280.3,87.6,280.3z
			 M93.5,234.8c-0.1-1.4-0.8-6.7-0.8-6.7s-0.6,5.5-0.7,6.7c0,0.7-1,13.3-1.1,14h3.6C94.4,248.2,93.6,235.4,93.5,234.8z"/>
		<path class="st1" d="M154.5,231.4v48.9h-22.6v-48.9h-11.6v-19.1h45.9v19.1H154.5z"/>
		<path class="st1" d="M187.3,280.3H165l11.9-68h32.2l11.1,68h-22.8c0,0-1.5-11-1.9-16.7h-6.3C188.8,270.3,187.3,280.3,187.3,280.3z
			 M193.2,234.8c-0.1-1.4-0.8-6.7-0.8-6.7s-0.6,5.5-0.7,6.7c0,0.7-1,13.3-1.1,14h3.6C194.2,248.2,193.3,235.4,193.2,234.8z"/>
		<path class="st1" d="M257.3,280.3h-32.1v-68h32.5c8,0,12.7,2,15.5,4.9c2.4,2.5,3.6,5.9,3.6,10.9c0,5.5-0.6,9.8-3,12.9
			c-1.7,2.1-4.3,3.7-8.5,4c4.6,0.4,7.7,2.3,9.6,4.6c2.6,2.9,3.2,7,3.2,11.9c0,6.2-1.1,11-4,13.9
			C271.1,278.6,265.7,280.3,257.3,280.3z M253,229.4c-0.3-0.8-1.1-1-2-1h-3.8v10.8h3.8c0.7,0,2-0.4,2.2-1.8c0.2-0.9,0.3-1.7,0.3-3.8
			C253.4,231.6,253.2,230.3,253,229.4z M253.8,259.1c0-1.6,0-2.6-0.3-3.5c-0.3-1.4-1.1-1.6-2-1.6h-4.3v10.5h4.2
			c1.2,0,1.9-0.5,2.1-1.7C253.8,261.7,253.8,260.6,253.8,259.1z"/>
		<path class="st1" d="M303.9,280.3h-22.3l11.9-68h32.2l11.1,68H314c0,0-1.5-11-1.9-16.7h-6.3C305.3,270.3,303.9,280.3,303.9,280.3z
			 M309.8,234.8c-0.1-1.4-0.8-6.7-0.8-6.7s-0.6,5.5-0.7,6.7c0,0.7-1,13.3-1.1,14h3.6C310.7,248.2,309.9,235.4,309.8,234.8z"/>
		<path class="st1" d="M364.3,281.3c-14.5,0-23.3-5.3-23.9-15c-0.2-2.7-0.3-4.3-0.3-7.1h21.3c0,1.6,0.1,2.5,0.3,3.8
			c0.2,1.2,1.1,1.8,2.6,1.8c1.8,0,2.4-1,2.4-2.6c0-3.3-3.4-4.9-6.6-6.7c-1.3-0.8-6.7-4.1-8.6-5.2c-7.5-4.4-11.4-8-11.4-20
			c0-10.5,9.5-19,24.3-19c15.3,0,22.1,8,23.4,16.6c0.3,2.4,0.5,6.3,0.5,6.7H367c0-1.6-0.2-2-0.2-3.2c0-1.3-0.9-2.7-2.4-2.7
			c-2,0-2.6,1.2-2.6,2.6c0,2.5,3.2,4.2,6.8,6.4c1.8,1.1,6.3,4,8.5,5.4c7.2,4.5,11.4,8.7,11.4,18.4
			C388.6,273.8,380.3,281.3,364.3,281.3z"/>
		<path class="st1" d="M394.3,280.3v-68h42.6v18.9h-20.5v6h19.4v17.9h-19.4v6.7H437v18.5H394.3z"/>
	</g>
	<g>
		<path class="st2" d="M41.6,280.3H13.4v-68h25.8c9,0,15.2,1.4,18.7,5.6c4.2,4.9,4.9,12.8,4.9,26.9c0,20.2-0.5,24.3-4.9,29.4
			C54.5,278.3,49.7,280.3,41.6,280.3z M41.6,247c0-8.2-0.3-12.9-0.7-14.5c-0.4-2-1.3-2.6-2.7-2.6h-2.7l-0.1,34.2h3
			c1.4,0,2.5-1.2,2.6-2.8C41.4,258.4,41.6,255.6,41.6,247z"/>
		<path class="st2" d="M87.6,280.3H65.3l11.9-68h32.2l11.1,68H97.7c0,0-1.5-11-1.9-16.7h-6.3C89,270.3,87.6,280.3,87.6,280.3z
			 M93.5,234.8c-0.1-1.4-0.8-6.7-0.8-6.7s-0.6,5.5-0.7,6.7c0,0.7-1,13.3-1.1,14h3.6C94.4,248.2,93.6,235.4,93.5,234.8z"/>
		<path class="st2" d="M154.5,231.4v48.9h-22.6v-48.9h-11.6v-19.1h45.9v19.1H154.5z"/>
		<path class="st2" d="M187.3,280.3H165l11.9-68h32.2l11.1,68h-22.8c0,0-1.5-11-1.9-16.7h-6.3C188.8,270.3,187.3,280.3,187.3,280.3z
			 M193.2,234.8c-0.1-1.4-0.8-6.7-0.8-6.7s-0.6,5.5-0.7,6.7c0,0.7-1,13.3-1.1,14h3.6C194.2,248.2,193.3,235.4,193.2,234.8z"/>
		<path class="st2" d="M257.3,280.3h-32.1v-68h32.5c8,0,12.7,2,15.5,4.9c2.4,2.5,3.6,5.9,3.6,10.9c0,5.5-0.6,9.8-3,12.9
			c-1.7,2.1-4.3,3.7-8.5,4c4.6,0.4,7.7,2.3,9.6,4.6c2.6,2.9,3.2,7,3.2,11.9c0,6.2-1.1,11-4,13.9
			C271.1,278.6,265.7,280.3,257.3,280.3z M253,229.4c-0.3-0.8-1.1-1-2-1h-3.8v10.8h3.8c0.7,0,2-0.4,2.2-1.8c0.2-0.9,0.3-1.7,0.3-3.8
			C253.4,231.6,253.2,230.3,253,229.4z M253.8,259.1c0-1.6,0-2.6-0.3-3.5c-0.3-1.4-1.1-1.6-2-1.6h-4.3v10.5h4.2
			c1.2,0,1.9-0.5,2.1-1.7C253.8,261.7,253.8,260.6,253.8,259.1z"/>
		<path class="st2" d="M303.9,280.3h-22.3l11.9-68h32.2l11.1,68H314c0,0-1.5-11-1.9-16.7h-6.3C305.3,270.3,303.9,280.3,303.9,280.3z
			 M309.8,234.8c-0.1-1.4-0.8-6.7-0.8-6.7s-0.6,5.5-0.7,6.7c0,0.7-1,13.3-1.1,14h3.6C310.7,248.2,309.9,235.4,309.8,234.8z"/>
		<path class="st2" d="M364.3,281.3c-14.5,0-23.3-5.3-23.9-15c-0.2-2.7-0.3-4.3-0.3-7.1h21.3c0,1.6,0.1,2.5,0.3,3.8
			c0.2,1.2,1.1,1.8,2.6,1.8c1.8,0,2.4-1,2.4-2.6c0-3.3-3.4-4.9-6.6-6.7c-1.3-0.8-6.7-4.1-8.6-5.2c-7.5-4.4-11.4-8-11.4-20
			c0-10.5,9.5-19,24.3-19c15.3,0,22.1,8,23.4,16.6c0.3,2.4,0.5,6.3,0.5,6.7H367c0-1.6-0.2-2-0.2-3.2c0-1.3-0.9-2.7-2.4-2.7
			c-2,0-2.6,1.2-2.6,2.6c0,2.5,3.2,4.2,6.8,6.4c1.8,1.1,6.3,4,8.5,5.4c7.2,4.5,11.4,8.7,11.4,18.4
			C388.6,273.8,380.3,281.3,364.3,281.3z"/>
		<path class="st2" d="M394.3,280.3v-68h42.6v18.9h-20.5v6h19.4v17.9h-19.4v6.7H437v18.5H394.3z"/>
	</g>
</g>
<g>
	<g>
		<g>
			<path class="st0" d="M32.8,87.2H10.4c-0.7,0-1-0.5-1-3V44.1h23v40.4C32.4,86.3,32.5,87.2,32.8,87.2z"/>
			<path class="st1" d="M70.6,87.2l-9.8-24.6v24.6H39.4V12.8h21.5L70.6,38V12.8h22v74.4L70.6,87.2L70.6,87.2z"/>
			<path class="st1" d="M135.6,33.7v53.5h-24.7V33.7H98.2V12.8h50.2v20.9H135.6z"/>
			<path class="st1" d="M154.2,87.2V12.8h46.6v20.7h-22.4V40h21.3v19.6h-21.3V67H201v20.2H154.2z"/>
			<path class="st1" d="M260.5,49.2c-1.6,3.6-3.8,5.3-5.5,6.2l9.7,31.9h-24.3l-7-26.2h-2.6v26.2h-23.6V12.9h34.2
				c7,0,12.3,2,15.8,5.7c3.8,3.9,5.6,9.8,5.6,17.5C262.8,42,261.9,46.2,260.5,49.2z M238.2,34.9c-0.3-1.1-0.9-2-2.2-2h-4.8
				c0,0,0,9.2,0,10.3c0.2,0,4.7,0,5-0.1c0.8-0.1,1.6-0.5,1.9-1.3s0.4-2.2,0.4-3.4S238.4,35.6,238.2,34.9z"/>
			<path class="st1" d="M301.5,87.2l-9.8-24.6v24.6h-21.4V12.8h21.5l9.7,25.2V12.8h22v74.4L301.5,87.2L301.5,87.2z"/>
			<path class="st1" d="M330.7,87.2V12.8h46.6v20.7h-22.4V40h21.3v19.6h-21.3V67h22.6v20.2H330.7z"/>
			<path class="st1" d="M420.3,33.7v53.5h-24.7V33.7h-12.7V12.8h50.2v20.9H420.3z"/>
		</g>
		<g>
			<path class="st0" d="M32.8,87.2H10.4c-0.7,0-1-0.5-1-3V44.1h23v40.4C32.4,86.3,32.5,87.2,32.8,87.2z"/>
			<path class="st1" d="M70.6,87.2l-9.8-24.6v24.6H39.4V12.8h21.5L70.6,38V12.8h22v74.4L70.6,87.2L70.6,87.2z"/>
			<path class="st1" d="M135.6,33.7v53.5h-24.7V33.7H98.2V12.8h50.2v20.9H135.6z"/>
			<path class="st1" d="M154.2,87.2V12.8h46.6v20.7h-22.4V40h21.3v19.6h-21.3V67H201v20.2H154.2z"/>
			<path class="st1" d="M260.5,49.2c-1.6,3.6-3.8,5.3-5.5,6.2l9.7,31.9h-24.3l-7-26.2h-2.6v26.2h-23.6V12.9h34.2
				c7,0,12.3,2,15.8,5.7c3.8,3.9,5.6,9.8,5.6,17.5C262.8,42,261.9,46.2,260.5,49.2z M238.2,34.9c-0.3-1.1-0.9-2-2.2-2h-4.8
				c0,0,0,9.2,0,10.3c0.2,0,4.7,0,5-0.1c0.8-0.1,1.6-0.5,1.9-1.3s0.4-2.2,0.4-3.4S238.4,35.6,238.2,34.9z"/>
			<path class="st1" d="M301.5,87.2l-9.8-24.6v24.6h-21.4V12.8h21.5l9.7,25.2V12.8h22v74.4L301.5,87.2L301.5,87.2z"/>
			<path class="st1" d="M330.7,87.2V12.8h46.6v20.7h-22.4V40h21.3v19.6h-21.3V67h22.6v20.2H330.7z"/>
			<path class="st1" d="M420.3,33.7v53.5h-24.7V33.7h-12.7V12.8h50.2v20.9H420.3z"/>
		</g>
		<g>
			<path d="M32.8,87.2H10.4c-0.7,0-1-0.5-1-3V44.1h23v40.4C32.4,86.3,32.5,87.2,32.8,87.2z"/>
			<path d="M70.6,87.2l-9.8-24.6v24.6H39.4V12.8h21.5L70.6,38V12.8h22v74.4L70.6,87.2L70.6,87.2z"/>
			<path d="M135.6,33.7v53.5h-24.7V33.7H98.2V12.8h50.2v20.9H135.6z"/>
			<path d="M154.2,87.2V12.8h46.6v20.7h-22.4V40h21.3v19.6h-21.3V67H201v20.2H154.2z"/>
			<path d="M260.5,49.2c-1.6,3.6-3.8,5.3-5.5,6.2l9.7,31.9h-24.3l-7-26.2h-2.6v26.2h-23.6V12.9h34.2c7,0,12.3,2,15.8,5.7
				c3.8,3.9,5.6,9.8,5.6,17.5C262.8,42,261.9,46.2,260.5,49.2z M238.2,34.9c-0.3-1.1-0.9-2-2.2-2h-4.8c0,0,0,9.2,0,10.3
				c0.2,0,4.7,0,5-0.1c0.8-0.1,1.6-0.5,1.9-1.3s0.4-2.2,0.4-3.4S238.4,35.6,238.2,34.9z"/>
			<path d="M301.5,87.2l-9.8-24.6v24.6h-21.4V12.8h21.5l9.7,25.2V12.8h22v74.4L301.5,87.2L301.5,87.2z"/>
			<path d="M330.7,87.2V12.8h46.6v20.7h-22.4V40h21.3v19.6h-21.3V67h22.6v20.2H330.7z"/>
			<path d="M420.3,33.7v53.5h-24.7V33.7h-12.7V12.8h50.2v20.9H420.3z"/>
		</g>
	</g>
	<polygon points="21.1,5.2 26.1,15.4 37.3,17 29.2,24.9 31.1,36.1 21.1,30.8 11.1,36.1 13,24.9 4.9,17 16.1,15.4 	"/>
</g>
<g>
	<g>
		<path d="M43.3,183.6H9.5V112h34.2c8.4,0,13.4,2.2,16.3,5.2c2.5,2.6,3.8,6.2,3.8,11.5c0,5.7-0.6,10.3-3.1,13.5
			c-1.8,2.2-4.6,3.9-9,4.2c4.8,0.4,8.1,2.4,10.1,4.8c2.8,3,3.4,7.4,3.4,12.6c0,6.5-1.2,11.6-4.2,14.6
			C57.8,181.8,52.2,183.6,43.3,183.6z M38.8,130c-0.4-0.8-1.2-1.1-2.2-1.1h-3.9v11.4h3.9c0.7,0,2.1-0.4,2.3-1.9
			c0.2-0.9,0.3-1.8,0.3-4C39.2,132.4,39.1,131,38.8,130z M39.6,161.2c0-1.7,0-2.7-0.3-3.7c-0.3-1.4-1.2-1.7-2.2-1.7h-4.5v11H37
			c1.3,0,2-0.5,2.2-1.8C39.6,164,39.6,162.9,39.6,161.2z"/>
	</g>
	<g>
		<path d="M123.6,128.1c1,4.7,1,9.1,1,18.7c0,10.6-0.4,15.6-1.2,19.6c-1.7,11.5-9.8,18.2-26.3,18.2c-16.3,0-24.5-6.3-26.2-16.9
			c-0.7-3.6-1-9.5-1-20.3c0-9.2,0-14,0.8-18c1.9-9.6,8.4-18.3,26.4-18.3C113.4,111.2,121.5,118.1,123.6,128.1z M100.3,163.4
			c0.5-3.6,0.7-8.7,0.7-15.5c0-6.3-0.1-12.1-0.4-14.4c-0.4-2.1-1-3.5-3.2-3.5s-2.8,1.3-3.1,3.7c-0.3,2.2-0.4,7.8-0.4,14.3
			c0,6.7,0.1,11.7,0.7,15.6c0.2,1.3,0.9,2.5,2.9,2.5C99.2,166,100.1,164.9,100.3,163.4z"/>
	</g>
	<g>
		<path d="M164.3,155.9v27.7h-23.7v-27.3L123.9,112h24c0,0,4.4,16.8,4.8,20.7c0.3-3.9,5.2-20.7,5.2-20.7h24L164.3,155.9z"/>
	</g>
	<g>
		<path d="M237.2,184.2h-33.8v-71.5h34.2c8.4,0,13.4,2.2,16.3,5.2c2.5,2.6,3.8,6.2,3.8,11.5c0,5.7-0.6,10.3-3.1,13.5
			c-1.8,2.2-4.6,3.9-9,4.2c4.8,0.4,8.1,2.4,10.1,4.8c2.8,3,3.4,7.4,3.4,12.6c0,6.5-1.2,11.6-4.2,14.6
			C251.7,182.4,246.1,184.2,237.2,184.2z M232.7,130.7c-0.4-0.8-1.2-1.1-2.2-1.1h-3.9V141h3.9c0.7,0,2.1-0.4,2.3-1.9
			c0.2-0.9,0.3-1.8,0.3-4C233.1,133,233,131.7,232.7,130.7z M233.5,161.9c0-1.7,0-2.7-0.3-3.7c-0.3-1.4-1.2-1.7-2.2-1.7h-4.5v11h4.4
			c1.3,0,2-0.5,2.2-1.8C233.5,164.7,233.5,163.5,233.5,161.9z"/>
	</g>
	<g>
		<path d="M286.2,184.2h-23.5l12.5-71.5h33.9l11.7,71.5h-24c0,0-1.6-11.6-2-17.6h-6.6C287.7,173.7,286.2,184.2,286.2,184.2z
			 M292.4,136.3c-0.1-1.4-0.8-7-0.8-7s-0.6,5.7-0.7,7c0,0.7-1.1,14-1.2,14.7h3.8C293.4,150.5,292.5,137,292.4,136.3z"/>
	</g>
	<g>
		<path d="M356,184.2l-9.4-23.7v23.7H326v-71.5h20.7l9.3,24.2v-24.2h21.2v71.5H356z"/>
	</g>
	<g>
		<path d="M413.7,184.2H384v-71.5h27.2c9.5,0,16,1.5,19.6,5.9c4.4,5.2,5.2,13.4,5.2,28.2c0,21.2-0.5,25.6-5.1,30.9
			C427.2,182.2,422.2,184.2,413.7,184.2z M413.7,149.2c0-8.6-0.4-13.5-0.7-15.2c-0.4-2.2-1.3-2.8-2.9-2.8h-2.9l-0.1,36h3.1
			c1.5,0,2.6-1.3,2.8-3C413.4,161.2,413.7,158.2,413.7,149.2z"/>
	</g>
</g>
<g>
	<g>
		<path class="st1" d="M37.6,276.3H9.4v-68h25.8c9,0,15.2,1.4,18.7,5.6c4.2,4.9,4.9,12.8,4.9,26.9c0,20.2-0.5,24.3-4.9,29.4
			C50.5,274.3,45.7,276.3,37.6,276.3z M37.6,243c0-8.2-0.3-12.9-0.7-14.5c-0.4-2-1.3-2.6-2.7-2.6h-2.7l-0.1,34.2h3
			c1.4,0,2.5-1.2,2.6-2.8C37.4,254.4,37.6,251.6,37.6,243z"/>
		<path class="st1" d="M83.6,276.3H61.3l11.9-68h32.2l11.1,68H93.7c0,0-1.5-11-1.9-16.7h-6.3C85,266.3,83.6,276.3,83.6,276.3z
			 M89.5,230.8c-0.1-1.4-0.8-6.7-0.8-6.7s-0.6,5.5-0.7,6.7c0,0.7-1,13.3-1.1,14h3.6C90.4,244.2,89.6,231.4,89.5,230.8z"/>
		<path class="st1" d="M150.5,227.4v48.9h-22.6v-48.9h-11.6v-19.1h45.9v19.1H150.5z"/>
		<path class="st1" d="M183.3,276.3H161l11.9-68h32.2l11.1,68h-22.8c0,0-1.5-11-1.9-16.7h-6.3C184.8,266.3,183.3,276.3,183.3,276.3z
			 M189.2,230.8c-0.1-1.4-0.8-6.7-0.8-6.7s-0.6,5.5-0.7,6.7c0,0.7-1,13.3-1.1,14h3.6C190.2,244.2,189.3,231.4,189.2,230.8z"/>
		<path class="st1" d="M253.3,276.3h-32.1v-68h32.5c8,0,12.7,2,15.5,4.9c2.4,2.5,3.6,5.9,3.6,10.9c0,5.5-0.6,9.8-3,12.9
			c-1.7,2.1-4.3,3.7-8.5,4c4.6,0.4,7.7,2.3,9.6,4.6c2.6,2.9,3.2,7,3.2,11.9c0,6.2-1.1,11-4,13.9
			C267.1,274.6,261.7,276.3,253.3,276.3z M249,225.4c-0.3-0.8-1.1-1-2-1h-3.8v10.8h3.8c0.7,0,2-0.4,2.2-1.8c0.2-0.9,0.3-1.7,0.3-3.8
			C249.4,227.6,249.2,226.3,249,225.4z M249.8,255.1c0-1.6,0-2.6-0.3-3.5c-0.3-1.4-1.1-1.6-2-1.6h-4.3v10.5h4.2
			c1.2,0,1.9-0.5,2.1-1.7C249.8,257.7,249.8,256.6,249.8,255.1z"/>
		<path class="st1" d="M299.9,276.3h-22.3l11.9-68h32.2l11.1,68H310c0,0-1.5-11-1.9-16.7h-6.3C301.3,266.3,299.9,276.3,299.9,276.3z
			 M305.8,230.8c-0.1-1.4-0.8-6.7-0.8-6.7s-0.6,5.5-0.7,6.7c0,0.7-1,13.3-1.1,14h3.6C306.7,244.2,305.9,231.4,305.8,230.8z"/>
		<path class="st1" d="M360.3,277.3c-14.5,0-23.3-5.3-23.9-15c-0.2-2.7-0.3-4.3-0.3-7.1h21.3c0,1.6,0.1,2.5,0.3,3.8
			c0.2,1.2,1.1,1.8,2.6,1.8c1.8,0,2.4-1,2.4-2.6c0-3.3-3.4-4.9-6.6-6.7c-1.3-0.8-6.7-4.1-8.6-5.2c-7.5-4.4-11.4-8-11.4-20
			c0-10.5,9.5-19,24.3-19c15.3,0,22.1,8,23.4,16.6c0.3,2.4,0.5,6.3,0.5,6.7H363c0-1.6-0.2-2-0.2-3.2c0-1.3-0.9-2.7-2.4-2.7
			c-2,0-2.6,1.2-2.6,2.6c0,2.5,3.2,4.2,6.8,6.4c1.8,1.1,6.3,4,8.5,5.4c7.2,4.5,11.4,8.7,11.4,18.4
			C384.6,269.8,376.3,277.3,360.3,277.3z"/>
		<path class="st1" d="M390.3,276.3v-68h42.6v18.9h-20.5v6h19.4v17.9h-19.4v6.7H433v18.5H390.3z"/>
	</g>
	<g>
		<path d="M37.6,276.3H9.4v-68h25.8c9,0,15.2,1.4,18.7,5.6c4.2,4.9,4.9,12.8,4.9,26.9c0,20.2-0.5,24.3-4.9,29.4
			C50.5,274.3,45.7,276.3,37.6,276.3z M37.6,243c0-8.2-0.3-12.9-0.7-14.5c-0.4-2-1.3-2.6-2.7-2.6h-2.7l-0.1,34.2h3
			c1.4,0,2.5-1.2,2.6-2.8C37.4,254.4,37.6,251.6,37.6,243z"/>
		<path d="M83.6,276.3H61.3l11.9-68h32.2l11.1,68H93.7c0,0-1.5-11-1.9-16.7h-6.3C85,266.3,83.6,276.3,83.6,276.3z M89.5,230.8
			c-0.1-1.4-0.8-6.7-0.8-6.7s-0.6,5.5-0.7,6.7c0,0.7-1,13.3-1.1,14h3.6C90.4,244.2,89.6,231.4,89.5,230.8z"/>
		<path d="M150.5,227.4v48.9h-22.6v-48.9h-11.6v-19.1h45.9v19.1H150.5z"/>
		<path d="M183.3,276.3H161l11.9-68h32.2l11.1,68h-22.8c0,0-1.5-11-1.9-16.7h-6.3C184.8,266.3,183.3,276.3,183.3,276.3z
			 M189.2,230.8c-0.1-1.4-0.8-6.7-0.8-6.7s-0.6,5.5-0.7,6.7c0,0.7-1,13.3-1.1,14h3.6C190.2,244.2,189.3,231.4,189.2,230.8z"/>
		<path d="M253.3,276.3h-32.1v-68h32.5c8,0,12.7,2,15.5,4.9c2.4,2.5,3.6,5.9,3.6,10.9c0,5.5-0.6,9.8-3,12.9c-1.7,2.1-4.3,3.7-8.5,4
			c4.6,0.4,7.7,2.3,9.6,4.6c2.6,2.9,3.2,7,3.2,11.9c0,6.2-1.1,11-4,13.9C267.1,274.6,261.7,276.3,253.3,276.3z M249,225.4
			c-0.3-0.8-1.1-1-2-1h-3.8v10.8h3.8c0.7,0,2-0.4,2.2-1.8c0.2-0.9,0.3-1.7,0.3-3.8C249.4,227.6,249.2,226.3,249,225.4z M249.8,255.1
			c0-1.6,0-2.6-0.3-3.5c-0.3-1.4-1.1-1.6-2-1.6h-4.3v10.5h4.2c1.2,0,1.9-0.5,2.1-1.7C249.8,257.7,249.8,256.6,249.8,255.1z"/>
		<path d="M299.9,276.3h-22.3l11.9-68h32.2l11.1,68H310c0,0-1.5-11-1.9-16.7h-6.3C301.3,266.3,299.9,276.3,299.9,276.3z
			 M305.8,230.8c-0.1-1.4-0.8-6.7-0.8-6.7s-0.6,5.5-0.7,6.7c0,0.7-1,13.3-1.1,14h3.6C306.7,244.2,305.9,231.4,305.8,230.8z"/>
		<path d="M360.3,277.3c-14.5,0-23.3-5.3-23.9-15c-0.2-2.7-0.3-4.3-0.3-7.1h21.3c0,1.6,0.1,2.5,0.3,3.8c0.2,1.2,1.1,1.8,2.6,1.8
			c1.8,0,2.4-1,2.4-2.6c0-3.3-3.4-4.9-6.6-6.7c-1.3-0.8-6.7-4.1-8.6-5.2c-7.5-4.4-11.4-8-11.4-20c0-10.5,9.5-19,24.3-19
			c15.3,0,22.1,8,23.4,16.6c0.3,2.4,0.5,6.3,0.5,6.7H363c0-1.6-0.2-2-0.2-3.2c0-1.3-0.9-2.7-2.4-2.7c-2,0-2.6,1.2-2.6,2.6
			c0,2.5,3.2,4.2,6.8,6.4c1.8,1.1,6.3,4,8.5,5.4c7.2,4.5,11.4,8.7,11.4,18.4C384.6,269.8,376.3,277.3,360.3,277.3z"/>
		<path d="M390.3,276.3v-68h42.6v18.9h-20.5v6h19.4v17.9h-19.4v6.7H433v18.5H390.3z"/>
	</g>
</g>
<g>
	<g>
		<path class="st1" d="M33.6,272.3H5.4v-68h25.8c9,0,15.2,1.4,18.7,5.6c4.2,4.9,4.9,12.8,4.9,26.9c0,20.2-0.5,24.3-4.9,29.4
			C46.5,270.3,41.7,272.3,33.6,272.3z M33.6,239c0-8.2-0.3-12.9-0.7-14.5c-0.4-2-1.3-2.6-2.7-2.6h-2.7l-0.1,34.2h3
			c1.4,0,2.5-1.2,2.6-2.8C33.4,250.4,33.6,247.6,33.6,239z"/>
		<path class="st1" d="M79.6,272.3H57.3l11.9-68h32.2l11.1,68H89.7c0,0-1.5-11-1.9-16.7h-6.3C81,262.3,79.6,272.3,79.6,272.3z
			 M85.5,226.8c-0.1-1.4-0.8-6.7-0.8-6.7s-0.6,5.5-0.7,6.7c0,0.7-1,13.3-1.1,14h3.6C86.4,240.2,85.6,227.4,85.5,226.8z"/>
		<path class="st1" d="M146.5,223.4v48.9h-22.6v-48.9h-11.6v-19.1h45.9v19.1H146.5z"/>
		<path class="st1" d="M179.3,272.3H157l11.9-68h32.2l11.1,68h-22.8c0,0-1.5-11-1.9-16.7h-6.3C180.8,262.3,179.3,272.3,179.3,272.3z
			 M185.2,226.8c-0.1-1.4-0.8-6.7-0.8-6.7s-0.6,5.5-0.7,6.7c0,0.7-1,13.3-1.1,14h3.6C186.2,240.2,185.3,227.4,185.2,226.8z"/>
		<path class="st1" d="M249.3,272.3h-32.1v-68h32.5c8,0,12.7,2,15.5,4.9c2.4,2.5,3.6,5.9,3.6,10.9c0,5.5-0.6,9.8-3,12.9
			c-1.7,2.1-4.3,3.7-8.5,4c4.6,0.4,7.7,2.3,9.6,4.6c2.6,2.9,3.2,7,3.2,11.9c0,6.2-1.1,11-4,13.9
			C263.1,270.6,257.7,272.3,249.3,272.3z M245,221.4c-0.3-0.8-1.1-1-2-1h-3.8v10.8h3.8c0.7,0,2-0.4,2.2-1.8c0.2-0.9,0.3-1.7,0.3-3.8
			C245.4,223.6,245.2,222.3,245,221.4z M245.8,251.1c0-1.6,0-2.6-0.3-3.5c-0.3-1.4-1.1-1.6-2-1.6h-4.3v10.5h4.2
			c1.2,0,1.9-0.5,2.1-1.7C245.8,253.7,245.8,252.6,245.8,251.1z"/>
		<path class="st1" d="M295.9,272.3h-22.3l11.9-68h32.2l11.1,68H306c0,0-1.5-11-1.9-16.7h-6.3C297.3,262.3,295.9,272.3,295.9,272.3z
			 M301.8,226.8c-0.1-1.4-0.8-6.7-0.8-6.7s-0.6,5.5-0.7,6.7c0,0.7-1,13.3-1.1,14h3.6C302.7,240.2,301.9,227.4,301.8,226.8z"/>
		<path class="st1" d="M356.3,273.3c-14.5,0-23.3-5.3-23.9-15c-0.2-2.7-0.3-4.3-0.3-7.1h21.3c0,1.6,0.1,2.5,0.3,3.8
			c0.2,1.2,1.1,1.8,2.6,1.8c1.8,0,2.4-1,2.4-2.6c0-3.3-3.4-4.9-6.6-6.7c-1.3-0.8-6.7-4.1-8.6-5.2c-7.5-4.4-11.4-8-11.4-20
			c0-10.5,9.5-19,24.3-19c15.3,0,22.1,8,23.4,16.6c0.3,2.4,0.5,6.3,0.5,6.7H359c0-1.6-0.2-2-0.2-3.2c0-1.3-0.9-2.7-2.4-2.7
			c-2,0-2.6,1.2-2.6,2.6c0,2.5,3.2,4.2,6.8,6.4c1.8,1.1,6.3,4,8.5,5.4c7.2,4.5,11.4,8.7,11.4,18.4
			C380.6,265.8,372.3,273.3,356.3,273.3z"/>
		<path class="st1" d="M386.3,272.3v-68h42.6v18.9h-20.5v6h19.4v17.9h-19.4v6.7H429v18.5H386.3z"/>
	</g>
	<g>
		<path class="st3" d="M33.6,272.3H5.4v-68h25.8c9,0,15.2,1.4,18.7,5.6c4.2,4.9,4.9,12.8,4.9,26.9c0,20.2-0.5,24.3-4.9,29.4
			C46.5,270.3,41.7,272.3,33.6,272.3z M33.6,239c0-8.2-0.3-12.9-0.7-14.5c-0.4-2-1.3-2.6-2.7-2.6h-2.7l-0.1,34.2h3
			c1.4,0,2.5-1.2,2.6-2.8C33.4,250.4,33.6,247.6,33.6,239z"/>
		<path class="st3" d="M79.6,272.3H57.3l11.9-68h32.2l11.1,68H89.7c0,0-1.5-11-1.9-16.7h-6.3C81,262.3,79.6,272.3,79.6,272.3z
			 M85.5,226.8c-0.1-1.4-0.8-6.7-0.8-6.7s-0.6,5.5-0.7,6.7c0,0.7-1,13.3-1.1,14h3.6C86.4,240.2,85.6,227.4,85.5,226.8z"/>
		<path class="st3" d="M146.5,223.4v48.9h-22.6v-48.9h-11.6v-19.1h45.9v19.1H146.5z"/>
		<path class="st3" d="M179.3,272.3H157l11.9-68h32.2l11.1,68h-22.8c0,0-1.5-11-1.9-16.7h-6.3C180.8,262.3,179.3,272.3,179.3,272.3z
			 M185.2,226.8c-0.1-1.4-0.8-6.7-0.8-6.7s-0.6,5.5-0.7,6.7c0,0.7-1,13.3-1.1,14h3.6C186.2,240.2,185.3,227.4,185.2,226.8z"/>
		<path class="st3" d="M249.3,272.3h-32.1v-68h32.5c8,0,12.7,2,15.5,4.9c2.4,2.5,3.6,5.9,3.6,10.9c0,5.5-0.6,9.8-3,12.9
			c-1.7,2.1-4.3,3.7-8.5,4c4.6,0.4,7.7,2.3,9.6,4.6c2.6,2.9,3.2,7,3.2,11.9c0,6.2-1.1,11-4,13.9
			C263.1,270.6,257.7,272.3,249.3,272.3z M245,221.4c-0.3-0.8-1.1-1-2-1h-3.8v10.8h3.8c0.7,0,2-0.4,2.2-1.8c0.2-0.9,0.3-1.7,0.3-3.8
			C245.4,223.6,245.2,222.3,245,221.4z M245.8,251.1c0-1.6,0-2.6-0.3-3.5c-0.3-1.4-1.1-1.6-2-1.6h-4.3v10.5h4.2
			c1.2,0,1.9-0.5,2.1-1.7C245.8,253.7,245.8,252.6,245.8,251.1z"/>
		<path class="st3" d="M295.9,272.3h-22.3l11.9-68h32.2l11.1,68H306c0,0-1.5-11-1.9-16.7h-6.3C297.3,262.3,295.9,272.3,295.9,272.3z
			 M301.8,226.8c-0.1-1.4-0.8-6.7-0.8-6.7s-0.6,5.5-0.7,6.7c0,0.7-1,13.3-1.1,14h3.6C302.7,240.2,301.9,227.4,301.8,226.8z"/>
		<path class="st3" d="M356.3,273.3c-14.5,0-23.3-5.3-23.9-15c-0.2-2.7-0.3-4.3-0.3-7.1h21.3c0,1.6,0.1,2.5,0.3,3.8
			c0.2,1.2,1.1,1.8,2.6,1.8c1.8,0,2.4-1,2.4-2.6c0-3.3-3.4-4.9-6.6-6.7c-1.3-0.8-6.7-4.1-8.6-5.2c-7.5-4.4-11.4-8-11.4-20
			c0-10.5,9.5-19,24.3-19c15.3,0,22.1,8,23.4,16.6c0.3,2.4,0.5,6.3,0.5,6.7H359c0-1.6-0.2-2-0.2-3.2c0-1.3-0.9-2.7-2.4-2.7
			c-2,0-2.6,1.2-2.6,2.6c0,2.5,3.2,4.2,6.8,6.4c1.8,1.1,6.3,4,8.5,5.4c7.2,4.5,11.4,8.7,11.4,18.4
			C380.6,265.8,372.3,273.3,356.3,273.3z"/>
		<path class="st3" d="M386.3,272.3v-68h42.6v18.9h-20.5v6h19.4v17.9h-19.4v6.7H429v18.5H386.3z"/>
	</g>
</g>
<g>
	<g>
		<g>
			<path class="st0" d="M28.8,83.2H6.4c-0.7,0-1-0.5-1-3V40.1h23v40.4C28.4,82.3,28.5,83.2,28.8,83.2z"/>
			<path class="st1" d="M66.6,83.2l-9.8-24.6v24.6H35.4V8.8h21.5L66.6,34V8.8h22v74.4L66.6,83.2L66.6,83.2z"/>
			<path class="st1" d="M131.6,29.7v53.5h-24.7V29.7H94.2V8.8h50.2v20.9H131.6z"/>
			<path class="st1" d="M150.2,83.2V8.8h46.6v20.7h-22.4V36h21.3v19.6h-21.3V63H197v20.2H150.2z"/>
			<path class="st1" d="M256.5,45.2c-1.6,3.6-3.8,5.3-5.5,6.2l9.7,31.9h-24.3l-7-26.2h-2.6v26.2h-23.6V8.9h34.2c7,0,12.3,2,15.8,5.7
				c3.8,3.9,5.6,9.8,5.6,17.5C258.8,38,257.9,42.2,256.5,45.2z M234.2,30.9c-0.3-1.1-0.9-2-2.2-2h-4.8c0,0,0,9.2,0,10.3
				c0.2,0,4.7,0,5-0.1c0.8-0.1,1.6-0.5,1.9-1.3s0.4-2.2,0.4-3.4S234.4,31.6,234.2,30.9z"/>
			<path class="st1" d="M297.5,83.2l-9.8-24.6v24.6h-21.4V8.8h21.5l9.7,25.2V8.8h22v74.4L297.5,83.2L297.5,83.2z"/>
			<path class="st1" d="M326.7,83.2V8.8h46.6v20.7h-22.4V36h21.3v19.6h-21.3V63h22.6v20.2H326.7z"/>
			<path class="st1" d="M416.3,29.7v53.5h-24.7V29.7h-12.7V8.8h50.2v20.9H416.3z"/>
		</g>
		<g>
			<path class="st0" d="M28.8,83.2H6.4c-0.7,0-1-0.5-1-3V40.1h23v40.4C28.4,82.3,28.5,83.2,28.8,83.2z"/>
			<path class="st1" d="M66.6,83.2l-9.8-24.6v24.6H35.4V8.8h21.5L66.6,34V8.8h22v74.4L66.6,83.2L66.6,83.2z"/>
			<path class="st1" d="M131.6,29.7v53.5h-24.7V29.7H94.2V8.8h50.2v20.9H131.6z"/>
			<path class="st1" d="M150.2,83.2V8.8h46.6v20.7h-22.4V36h21.3v19.6h-21.3V63H197v20.2H150.2z"/>
			<path class="st1" d="M256.5,45.2c-1.6,3.6-3.8,5.3-5.5,6.2l9.7,31.9h-24.3l-7-26.2h-2.6v26.2h-23.6V8.9h34.2c7,0,12.3,2,15.8,5.7
				c3.8,3.9,5.6,9.8,5.6,17.5C258.8,38,257.9,42.2,256.5,45.2z M234.2,30.9c-0.3-1.1-0.9-2-2.2-2h-4.8c0,0,0,9.2,0,10.3
				c0.2,0,4.7,0,5-0.1c0.8-0.1,1.6-0.5,1.9-1.3s0.4-2.2,0.4-3.4S234.4,31.6,234.2,30.9z"/>
			<path class="st1" d="M297.5,83.2l-9.8-24.6v24.6h-21.4V8.8h21.5l9.7,25.2V8.8h22v74.4L297.5,83.2L297.5,83.2z"/>
			<path class="st1" d="M326.7,83.2V8.8h46.6v20.7h-22.4V36h21.3v19.6h-21.3V63h22.6v20.2H326.7z"/>
			<path class="st1" d="M416.3,29.7v53.5h-24.7V29.7h-12.7V8.8h50.2v20.9H416.3z"/>
		</g>
		<g>
			<path class="st3" d="M28.8,83.2H6.4c-0.7,0-1-0.5-1-3V40.1h23v40.4C28.4,82.3,28.5,83.2,28.8,83.2z"/>
			<path class="st3" d="M66.6,83.2l-9.8-24.6v24.6H35.4V8.8h21.5L66.6,34V8.8h22v74.4L66.6,83.2L66.6,83.2z"/>
			<path class="st3" d="M131.6,29.7v53.5h-24.7V29.7H94.2V8.8h50.2v20.9H131.6z"/>
			<path class="st3" d="M150.2,83.2V8.8h46.6v20.7h-22.4V36h21.3v19.6h-21.3V63H197v20.2H150.2z"/>
			<path class="st3" d="M256.5,45.2c-1.6,3.6-3.8,5.3-5.5,6.2l9.7,31.9h-24.3l-7-26.2h-2.6v26.2h-23.6V8.9h34.2c7,0,12.3,2,15.8,5.7
				c3.8,3.9,5.6,9.8,5.6,17.5C258.8,38,257.9,42.2,256.5,45.2z M234.2,30.9c-0.3-1.1-0.9-2-2.2-2h-4.8c0,0,0,9.2,0,10.3
				c0.2,0,4.7,0,5-0.1c0.8-0.1,1.6-0.5,1.9-1.3s0.4-2.2,0.4-3.4S234.4,31.6,234.2,30.9z"/>
			<path class="st3" d="M297.5,83.2l-9.8-24.6v24.6h-21.4V8.8h21.5l9.7,25.2V8.8h22v74.4L297.5,83.2L297.5,83.2z"/>
			<path class="st3" d="M326.7,83.2V8.8h46.6v20.7h-22.4V36h21.3v19.6h-21.3V63h22.6v20.2H326.7z"/>
			<path class="st3" d="M416.3,29.7v53.5h-24.7V29.7h-12.7V8.8h50.2v20.9H416.3z"/>
		</g>
	</g>
	<polygon class="st4" points="17.1,1.2 22.1,11.4 33.3,13 25.2,20.9 27.1,32.1 17.1,26.8 7.1,32.1 9,20.9 0.9,13 12.1,11.4 	"/>
</g>
<g>
	<path class="st4" d="M39.3,179.6H5.5V108h34.2c8.4,0,13.4,2.2,16.3,5.2c2.5,2.6,3.8,6.2,3.8,11.5c0,5.7-0.6,10.3-3.1,13.5
		c-1.8,2.2-4.6,3.9-9,4.2c4.8,0.4,8.1,2.4,10.1,4.8c2.8,3,3.4,7.4,3.4,12.6c0,6.5-1.2,11.6-4.2,14.6
		C53.8,177.8,48.2,179.6,39.3,179.6z M34.8,126c-0.4-0.8-1.2-1.1-2.2-1.1h-3.9v11.4h3.9c0.7,0,2.1-0.4,2.3-1.9
		c0.2-0.9,0.3-1.8,0.3-4C35.2,128.4,35.1,127,34.8,126z M35.6,157.2c0-1.7,0-2.7-0.3-3.7c-0.3-1.4-1.2-1.7-2.2-1.7h-4.5v11H33
		c1.3,0,2-0.5,2.2-1.8C35.6,160,35.6,158.9,35.6,157.2z"/>
	<path class="st4" d="M119.6,124.1c1,4.7,1,9.1,1,18.7c0,10.6-0.4,15.6-1.2,19.6c-1.7,11.5-9.8,18.2-26.3,18.2
		c-16.3,0-24.5-6.3-26.2-16.9c-0.7-3.6-1-9.5-1-20.3c0-9.2,0-14,0.8-18c1.9-9.6,8.4-18.3,26.4-18.3
		C109.4,107.2,117.5,114.1,119.6,124.1z M96.3,159.4c0.5-3.6,0.7-8.7,0.7-15.5c0-6.3-0.1-12.1-0.4-14.4c-0.4-2.1-1-3.5-3.2-3.5
		s-2.8,1.3-3.1,3.7c-0.3,2.2-0.4,7.8-0.4,14.3c0,6.7,0.1,11.7,0.7,15.6c0.2,1.3,0.9,2.5,2.9,2.5C95.2,162,96.1,160.9,96.3,159.4z"/>
	<path class="st4" d="M160.3,151.9v27.7h-23.7v-27.3L119.9,108h24c0,0,4.4,16.8,4.8,20.7c0.3-3.9,5.2-20.7,5.2-20.7h24L160.3,151.9z
		"/>
	<path class="st4" d="M233.2,180.2h-33.8v-71.5h34.2c8.4,0,13.4,2.2,16.3,5.2c2.5,2.6,3.8,6.2,3.8,11.5c0,5.7-0.6,10.3-3.1,13.5
		c-1.8,2.2-4.6,3.9-9,4.2c4.8,0.4,8.1,2.4,10.1,4.8c2.8,3,3.4,7.4,3.4,12.6c0,6.5-1.2,11.6-4.2,14.6
		C247.7,178.4,242.1,180.2,233.2,180.2z M228.7,126.7c-0.4-0.8-1.2-1.1-2.2-1.1h-3.9V137h3.9c0.7,0,2.1-0.4,2.3-1.9
		c0.2-0.9,0.3-1.8,0.3-4C229.1,129,229,127.7,228.7,126.7z M229.5,157.9c0-1.7,0-2.7-0.3-3.7c-0.3-1.4-1.2-1.7-2.2-1.7h-4.5v11h4.4
		c1.3,0,2-0.5,2.2-1.8C229.5,160.7,229.5,159.5,229.5,157.9z"/>
	<path class="st4" d="M282.2,180.2h-23.5l12.5-71.5h33.9l11.7,71.5h-24c0,0-1.6-11.6-2-17.6h-6.6
		C283.7,169.7,282.2,180.2,282.2,180.2z M288.4,132.3c-0.1-1.4-0.8-7-0.8-7s-0.6,5.7-0.7,7c0,0.7-1.1,14-1.2,14.7h3.8
		C289.4,146.5,288.5,133,288.4,132.3z"/>
	<path class="st4" d="M352,180.2l-9.4-23.7v23.7H322v-71.5h20.7l9.3,24.2v-24.2h21.2v71.5H352z"/>
	<path class="st4" d="M409.7,180.2H380v-71.5h27.2c9.5,0,16,1.5,19.6,5.9c4.4,5.2,5.2,13.4,5.2,28.2c0,21.2-0.5,25.6-5.1,30.9
		C423.2,178.2,418.2,180.2,409.7,180.2z M409.7,145.2c0-8.6-0.4-13.5-0.7-15.2c-0.4-2.2-1.3-2.8-2.9-2.8h-2.9l-0.1,36h3.1
		c1.5,0,2.6-1.3,2.8-3C409.4,157.2,409.7,154.2,409.7,145.2z"/>
</g>
</svg>
